<?xml version="1.0" encoding="UTF-8" standalone="no"?>
<!-- Created with Inkscape (http://www.inkscape.org/) -->

<svg
   xmlns:dc="http://purl.org/dc/elements/1.1/"
   xmlns:cc="http://creativecommons.org/ns#"
   xmlns:rdf="http://www.w3.org/1999/02/22-rdf-syntax-ns#"
   xmlns:svg="http://www.w3.org/2000/svg"
   xmlns="http://www.w3.org/2000/svg"
   xmlns:sodipodi="http://sodipodi.sourceforge.net/DTD/sodipodi-0.dtd"
   xmlns:inkscape="http://www.inkscape.org/namespaces/inkscape"
   version="1.1"
   id="svg7722"
   xml:space="preserve"
   width="5196.7983"
   height="900.10132"
   viewBox="0 0 5196.7982 900.10134"
   sodipodi:docname="datashader-stacked copy.svg"
   inkscape:version="0.92.4 (5da689c313, 2019-01-14)"><metadata
     id="metadata7728"><rdf:RDF><cc:Work
         rdf:about=""><dc:format>image/svg+xml</dc:format><dc:type
           rdf:resource="http://purl.org/dc/dcmitype/StillImage" /><dc:title></dc:title></cc:Work></rdf:RDF></metadata><defs
     id="defs7726"><clipPath
       clipPathUnits="userSpaceOnUse"
       id="clipPath7738"><path
         d="M 0,1372 H 1883 V 0 H 0 Z"
         id="path7736"
         inkscape:connector-curvature="0" /></clipPath></defs><sodipodi:namedview
     pagecolor="#ffffff"
     bordercolor="#666666"
     borderopacity="1"
     objecttolerance="10"
     gridtolerance="10"
     guidetolerance="10"
     inkscape:pageopacity="0"
     inkscape:pageshadow="2"
     inkscape:window-width="1332"
     inkscape:window-height="750"
     id="namedview7724"
     showgrid="false"
     inkscape:zoom="0.064504376"
     inkscape:cx="-405.34651"
     inkscape:cy="-267.48983"
     inkscape:window-x="0"
     inkscape:window-y="0"
     inkscape:window-maximized="0"
     inkscape:current-layer="g7730"
     fit-margin-top="0"
     fit-margin-left="0"
     fit-margin-right="0"
     fit-margin-bottom="0" /><g
     id="g7730"
     inkscape:groupmode="layer"
     inkscape:label="2017-05v1-datashader-master-RGB"
     transform="matrix(1.3333333,0,0,-1.3333333,-805.19078,1598.3974)"><g
       id="g10449"
       transform="matrix(1.9964895,0,0,1.9964895,1084.7206,293.95422)"><g
         transform="translate(218.9456,218.6609)"
         id="g7740"><path
           inkscape:connector-curvature="0"
           id="path7742"
           style="fill:#785099;fill-opacity:1;fill-rule:nonzero;stroke:none"
           d="m 0,0 c 1.829,0.132 0.133,-0.555 -2.134,-0.46 2.405,-0.106 2.663,-0.154 5.986,-0.154 19.426,0 25.343,6.037 34.725,18.118 9.378,12.078 14.071,28.762 14.071,50.057 0,22.312 -4.483,39.202 -13.448,50.67 -8.966,11.463 -14.677,17.197 -34.103,17.197 -2.658,0 5.694,-0.053 2.872,-0.153 C 5.144,135.169 -2.185,134.915 0,134.507 Z m 103.835,67.561 c 0,-18.426 -2.327,-34.5 -6.973,-48.214 C 92.212,5.628 85.612,-5.734 77.063,-14.74 68.51,-23.751 58.093,-30.508 45.808,-35.008 33.519,-39.509 19.74,-41.765 4.466,-41.765 c -6.973,0 -15.11,0.36 -24.406,1.075 -9.3,0.72 -18.43,2.198 -27.395,4.453 v 207.288 c 8.965,2.044 18.305,3.426 28.017,4.146 9.713,0.715 18.056,1.075 25.029,1.075 14.776,0 28.181,-2.049 40.221,-6.142 12.036,-4.098 22.372,-10.547 31.007,-19.347 8.631,-8.805 15.273,-20.066 19.923,-33.78 4.646,-13.719 6.973,-30.201 6.973,-49.442" /></g><g
         transform="translate(407.7532,210.8969)"
         id="g7744"><path
           inkscape:connector-curvature="0"
           id="path7746"
           style="fill:#785099;fill-opacity:1;fill-rule:nonzero;stroke:none"
           d="m 0,0 c 4.793,0 9.371,0.105 13.735,0.32 4.358,0.209 7.848,0.529 10.464,0.958 v 36.097 c -1.962,0.424 -4.905,0.849 -8.829,1.278 -3.924,0.424 -7.522,0.639 -10.792,0.639 -4.578,0 -8.885,-0.27 -12.917,-0.799 -4.036,-0.534 -7.577,-1.547 -10.628,-3.034 -3.055,-1.493 -5.451,-3.515 -7.194,-6.07 -1.747,-2.555 -2.616,-5.75 -2.616,-9.583 0,-7.457 2.56,-12.619 7.685,-15.494 C -15.972,1.438 -8.942,0 0,0 m -3.924,139.278 c 14.388,0 26.375,-1.597 35.971,-4.792 9.591,-3.195 17.276,-7.777 23.055,-13.736 5.773,-5.964 9.861,-13.207 12.263,-21.722 2.396,-8.52 3.597,-17.999 3.597,-28.431 V -28.43 c -6.98,-1.493 -16.678,-3.25 -29.104,-5.271 -12.427,-2.022 -27.469,-3.035 -45.128,-3.035 -11.118,0 -21.205,0.958 -30.249,2.874 -9.049,1.917 -16.841,5.057 -23.381,9.424 -6.54,4.363 -11.558,10.063 -15.043,17.09 -3.489,7.028 -5.232,15.654 -5.232,25.876 0,9.793 2.013,18.098 6.05,24.917 4.031,6.813 9.427,12.243 16.187,16.291 6.755,4.044 14.496,6.973 23.218,8.785 8.717,1.806 17.766,2.715 27.142,2.715 6.32,0 11.936,-0.269 16.841,-0.798 4.905,-0.535 8.88,-1.228 11.936,-2.077 v 4.473 c 0,8.09 -2.509,14.584 -7.521,19.486 -5.018,4.896 -13.735,7.347 -26.161,7.347 -8.288,0 -16.463,-0.589 -24.526,-1.757 -8.068,-1.173 -15.043,-2.825 -20.929,-4.952 l -6.213,38.333 c 2.83,0.849 6.377,1.758 10.628,2.716 4.251,0.958 8.88,1.807 13.898,2.555 5.012,0.744 10.301,1.383 15.86,1.917 5.559,0.529 11.169,0.799 16.841,0.799" /></g><g
         transform="translate(498.3335,395.2162)"
         id="g7748"><path
           inkscape:connector-curvature="0"
           id="path7750"
           style="fill:#785099;fill-opacity:1;fill-rule:nonzero;stroke:none"
           d="m 0,0 h 48.725 v -49.514 h 58.535 v -39.61 H 48.725 v -59.098 c 0,-10.012 1.798,-17.998 5.396,-23.959 3.597,-5.964 10.842,-8.944 21.746,-8.944 5.232,0 10.628,0.479 16.187,1.437 5.559,0.959 10.628,2.287 15.206,3.994 l 6.867,-37.056 c -5.886,-2.346 -12.426,-4.367 -19.62,-6.069 -7.195,-1.702 -16.024,-2.556 -26.488,-2.556 -13.3,0 -24.312,1.757 -33.029,5.271 -8.722,3.514 -15.696,8.411 -20.928,14.694 -5.233,6.28 -8.886,13.896 -10.955,22.841 C 1.032,-169.625 0,-159.722 0,-148.86 Z" /></g><g
         transform="translate(697.9956,210.8969)"
         id="g7752"><path
           inkscape:connector-curvature="0"
           id="path7754"
           style="fill:#785099;fill-opacity:1;fill-rule:nonzero;stroke:none"
           d="m 0,0 c 4.793,0 9.371,0.105 13.734,0.32 4.359,0.209 7.849,0.529 10.465,0.958 v 36.097 c -1.962,0.424 -4.905,0.849 -8.829,1.278 -3.925,0.424 -7.522,0.639 -10.792,0.639 -4.578,0 -8.885,-0.27 -12.917,-0.799 -4.036,-0.534 -7.577,-1.547 -10.628,-3.034 -3.055,-1.493 -5.452,-3.515 -7.194,-6.07 -1.747,-2.555 -2.616,-5.75 -2.616,-9.583 0,-7.457 2.56,-12.619 7.685,-15.494 C -15.973,1.438 -8.942,0 0,0 m -3.924,139.278 c 14.388,0 26.375,-1.597 35.971,-4.792 9.591,-3.195 17.276,-7.777 23.054,-13.736 5.774,-5.964 9.862,-13.207 12.264,-21.722 2.396,-8.52 3.596,-17.999 3.596,-28.431 V -28.43 c -6.979,-1.493 -16.677,-3.25 -29.104,-5.271 -12.426,-2.022 -27.469,-3.035 -45.127,-3.035 -11.118,0 -21.205,0.958 -30.249,2.874 -9.049,1.917 -16.841,5.057 -23.381,9.424 -6.54,4.363 -11.558,10.063 -15.043,17.09 -3.49,7.028 -5.232,15.654 -5.232,25.876 0,9.793 2.013,18.098 6.05,24.917 4.031,6.813 9.427,12.243 16.187,16.291 6.755,4.044 14.496,6.973 23.218,8.785 8.717,1.806 17.766,2.715 27.142,2.715 6.32,0 11.936,-0.269 16.841,-0.798 4.905,-0.535 8.88,-1.228 11.936,-2.077 v 4.473 c 0,8.09 -2.509,14.584 -7.522,19.486 -5.017,4.896 -13.734,7.347 -26.16,7.347 -8.288,0 -16.463,-0.589 -24.526,-1.757 -8.068,-1.173 -15.043,-2.825 -20.929,-4.952 l -6.213,38.333 c 2.83,0.849 6.377,1.758 10.628,2.716 4.251,0.958 8.88,1.807 13.898,2.555 5.012,0.744 10.301,1.383 15.86,1.917 5.559,0.529 11.169,0.799 16.841,0.799" /></g><g
         transform="translate(842.8599,211.8549)"
         id="g7756"><path
           inkscape:connector-curvature="0"
           id="path7758"
           style="fill:#785099;fill-opacity:1;fill-rule:nonzero;stroke:none"
           d="m 0,0 c 8.937,0 15.257,0.849 18.967,2.556 3.704,1.702 5.559,5.001 5.559,9.902 0,3.834 -2.402,7.188 -7.194,10.063 -4.798,2.876 -12.1,6.119 -21.91,9.743 -7.634,2.766 -14.552,5.641 -20.766,8.625 -6.213,2.98 -11.501,6.549 -15.86,10.702 -4.363,4.153 -7.741,9.104 -10.137,14.854 -2.401,5.749 -3.597,12.668 -3.597,20.764 0,15.757 5.993,28.216 17.986,37.375 11.987,9.154 28.45,13.736 49.379,13.736 10.464,0 20.489,-0.909 30.084,-2.716 9.591,-1.811 17.22,-3.783 22.891,-5.909 L 56.9,92.64 c -5.671,1.916 -11.828,3.618 -18.476,5.11 -6.653,1.487 -14.118,2.236 -22.4,2.236 -15.263,0 -22.891,-4.153 -22.891,-12.458 0,-1.916 0.327,-3.624 0.981,-5.111 0.654,-1.493 1.962,-2.93 3.924,-4.312 C 0,76.717 2.667,75.219 6.05,73.612 9.427,72.001 13.735,70.229 18.967,68.302 29.646,64.433 38.475,60.62 45.455,56.867 52.429,53.108 57.932,49.05 61.969,44.698 66,40.34 68.836,35.504 70.471,30.193 c 1.635,-5.311 2.453,-11.475 2.453,-18.484 0,-16.575 -6.377,-29.113 -19.131,-37.613 -12.753,-8.496 -30.795,-12.749 -54.12,-12.749 -15.262,0 -27.96,1.278 -38.097,3.833 -10.137,2.557 -17.168,4.683 -21.092,6.39 l 8.175,38.653 C -43.058,7.028 -34.556,4.522 -25.834,2.716 -17.117,0.903 -8.502,0 0,0" /></g><g
         transform="translate(929.1863,177.8766)"
         id="g7760"><path
           inkscape:connector-curvature="0"
           id="path7762"
           style="fill:#785099;fill-opacity:1;fill-rule:nonzero;stroke:none"
           d="m 0,0 v 217.34 h 48.148 l 0.577,-49.951 c 3.27,1.063 7.465,2.076 12.59,3.035 5.12,0.958 10.081,1.437 14.879,1.437 13.949,0 25.558,-1.866 34.827,-5.59 9.263,-3.728 16.677,-8.999 22.236,-15.812 5.559,-6.819 9.484,-14.909 11.773,-24.278 2.289,-9.374 3.433,-19.806 3.433,-31.306 V 0 H 99.739 v 89.125 c 0,15.334 -2.019,26.195 -6.05,32.583 -4.037,6.39 -11.502,9.583 -22.4,9.583 -4.364,0 -8.452,-0.374 -12.263,-1.117 -3.817,-0.749 -7.251,-1.548 -10.301,-2.396 L 48.725,0 Z" /></g><g
         transform="translate(1164.6313,210.8969)"
         id="g7764"><path
           inkscape:connector-curvature="0"
           id="path7766"
           style="fill:#785099;fill-opacity:1;fill-rule:nonzero;stroke:none"
           d="m 0,0 c 4.793,0 9.371,0.105 13.735,0.32 4.358,0.209 7.848,0.529 10.464,0.958 v 36.097 c -1.962,0.424 -4.905,0.849 -8.829,1.278 -3.925,0.424 -7.522,0.639 -10.792,0.639 -4.578,0 -8.885,-0.27 -12.917,-0.799 -4.036,-0.534 -7.577,-1.547 -10.628,-3.034 -3.055,-1.493 -5.452,-3.515 -7.194,-6.07 -1.747,-2.555 -2.616,-5.75 -2.616,-9.583 0,-7.457 2.56,-12.619 7.685,-15.494 C -15.972,1.438 -8.942,0 0,0 m -3.924,139.278 c 14.388,0 26.375,-1.597 35.971,-4.792 9.591,-3.195 17.276,-7.777 23.055,-13.736 5.773,-5.964 9.861,-13.207 12.263,-21.722 2.396,-8.52 3.596,-17.999 3.596,-28.431 V -28.43 c -6.979,-1.493 -16.677,-3.25 -29.103,-5.271 -12.427,-2.022 -27.47,-3.035 -45.128,-3.035 -11.118,0 -21.205,0.958 -30.249,2.874 -9.049,1.917 -16.841,5.057 -23.381,9.424 -6.54,4.363 -11.558,10.063 -15.043,17.09 -3.489,7.028 -5.232,15.654 -5.232,25.876 0,9.793 2.013,18.098 6.05,24.917 4.031,6.813 9.427,12.243 16.187,16.291 6.755,4.044 14.496,6.973 23.218,8.785 8.717,1.806 17.766,2.715 27.142,2.715 6.32,0 11.936,-0.269 16.841,-0.798 4.905,-0.535 8.88,-1.228 11.936,-2.077 v 4.473 c 0,8.09 -2.509,14.584 -7.521,19.486 -5.018,4.896 -13.735,7.347 -26.161,7.347 -8.288,0 -16.463,-0.589 -24.526,-1.757 -8.068,-1.173 -15.043,-2.825 -20.929,-4.952 l -6.213,38.333 c 2.83,0.849 6.377,1.758 10.628,2.716 4.251,0.958 8.88,1.807 13.898,2.555 5.012,0.744 10.301,1.383 15.86,1.917 5.559,0.529 11.169,0.799 16.841,0.799" /></g><g
         transform="translate(1298.3772,262.9668)"
         id="g7768"><path
           inkscape:connector-curvature="0"
           id="path7770"
           style="fill:#785099;fill-opacity:1;fill-rule:nonzero;stroke:none"
           d="m 0,0 c 0,-14.695 3.377,-26.514 10.137,-35.459 6.755,-8.944 16.785,-13.416 30.085,-13.416 4.359,0 8.39,0.159 12.1,0.479 3.704,0.319 6.755,0.688 9.156,1.118 v 86.569 c -3.055,1.917 -7.03,3.514 -11.936,4.792 -4.905,1.278 -9.866,1.916 -14.879,1.916 C 11.553,45.999 0,30.666 0,0 m 110.203,-79.862 c -4.364,-1.277 -9.376,-2.505 -15.043,-3.674 -5.671,-1.172 -11.608,-2.181 -17.822,-3.034 -6.213,-0.848 -12.538,-1.543 -18.966,-2.076 -6.433,-0.529 -12.59,-0.799 -18.476,-0.799 -14.174,0 -26.815,2.027 -37.934,6.07 -11.118,4.042 -20.494,9.847 -28.123,17.41 -7.634,7.556 -13.464,16.715 -17.495,27.472 -4.037,10.751 -6.05,22.84 -6.05,36.256 0,13.627 1.742,25.926 5.232,36.896 3.485,10.966 8.503,20.285 15.043,27.951 6.54,7.667 14.552,13.522 24.035,17.57 9.484,4.043 20.326,6.069 32.538,6.069 6.755,0 12.805,-0.638 18.149,-1.916 5.34,-1.278 10.735,-3.09 16.187,-5.43 v 53.346 h 48.725 z" /></g><g
         transform="translate(1537.7463,278.6189)"
         id="g7772"><path
           inkscape:connector-curvature="0"
           id="path7774"
           style="fill:#785099;fill-opacity:1;fill-rule:nonzero;stroke:none"
           d="m 0,0 c -0.22,4.043 -0.93,7.987 -2.125,11.82 -1.201,3.833 -3.056,7.237 -5.56,10.222 -2.508,2.98 -5.671,5.431 -9.483,7.347 -3.817,1.917 -8.559,2.875 -14.225,2.875 -5.452,0 -10.138,-0.908 -14.062,-2.716 -3.924,-1.811 -7.194,-4.207 -9.81,-7.187 -2.616,-2.984 -4.634,-6.443 -6.05,-10.382 C -62.735,8.037 -63.767,4.043 -64.421,0 Z m -114.454,-18.208 c 0,14.904 2.34,27.952 7.031,39.132 4.685,11.181 10.842,20.494 18.476,27.951 7.628,7.452 16.401,13.098 26.324,16.931 9.918,3.833 20.112,5.75 30.576,5.75 24.413,0 43.707,-7.297 57.881,-21.882 14.169,-14.59 21.256,-36.047 21.256,-64.368 0,-2.77 -0.113,-5.805 -0.327,-9.104 -0.22,-3.305 -0.44,-6.229 -0.654,-8.785 h -110.53 c 1.088,-9.798 5.774,-17.57 14.061,-23.319 8.283,-5.75 19.401,-8.625 33.355,-8.625 8.937,0 17.71,0.798 26.325,2.396 8.609,1.596 15.64,3.563 21.092,5.909 l 6.54,-38.653 c -2.616,-1.277 -6.106,-2.556 -10.464,-3.833 -4.363,-1.278 -9.213,-2.396 -14.552,-3.355 -5.345,-0.958 -11.067,-1.756 -17.168,-2.395 -6.106,-0.639 -12.212,-0.959 -18.313,-0.959 -15.482,0 -28.94,2.237 -40.386,6.709 -11.445,4.472 -20.929,10.592 -28.45,18.368 -7.521,7.771 -13.08,16.98 -16.677,27.632 -3.598,10.646 -5.396,22.147 -5.396,34.5" /></g><g
         transform="translate(1703.2146,303.5355)"
         id="g7776"><path
           inkscape:connector-curvature="0"
           id="path7778"
           style="fill:#785099;fill-opacity:1;fill-rule:nonzero;stroke:none"
           d="m 0,0 c -4.364,1.064 -9.483,2.182 -15.37,3.354 -5.886,1.168 -12.211,1.758 -18.967,1.758 -3.055,0 -6.703,-0.27 -10.955,-0.799 -4.25,-0.535 -7.469,-1.118 -9.646,-1.757 v -128.417 h -48.725 V 33.222 c 8.717,2.981 19.018,5.8 30.903,8.466 11.879,2.66 25.124,3.993 39.732,3.993 2.616,0 5.773,-0.16 9.483,-0.479 3.704,-0.319 7.409,-0.749 11.118,-1.278 3.705,-0.534 7.409,-1.173 11.119,-1.916 3.704,-0.749 6.867,-1.652 9.483,-2.716 z" /></g></g><g
       id="g7780"
       transform="translate(869.429,596.5529)"><path
         d="M 0,0 0.071,-0.071"
         style="fill:#643186;fill-opacity:1;fill-rule:nonzero;stroke:none"
         id="path7782"
         inkscape:connector-curvature="0" /></g><g
       id="g7784"
       transform="translate(898.3755,1069.355)"><path
         d="M 0,0 -43.47,-43.47"
         style="fill:#643186;fill-opacity:1;fill-rule:nonzero;stroke:none"
         id="path7786"
         inkscape:connector-curvature="0" /></g><g
       id="g7788"
       transform="translate(854.9055,1112.8251)"><path
         d="m 0,0 43.47,-43.47 43.101,43.101 251.473,-251.473 -250.69,-250.689 -86.94,86.94 -0.184,-0.184 14.106,-14.105 0.092,0.091 43.36,-43.36 -43.194,-43.194 72.76,-72.76 336.847,336.847 L 85.973,85.973 Z"
         style="fill:#643186;fill-opacity:1;fill-rule:nonzero;stroke:none"
         id="path7790"
         inkscape:connector-curvature="0" /></g><g
       id="g7792"
       transform="translate(690.7871,861.7665)"><path
         d="m 0,0 0.046,0.046 -43.47,43.47 -43.332,-43.332 -0.138,-0.138 43.47,-43.47 0.138,0.138 z"
         style="fill:#785099;fill-opacity:1;fill-rule:nonzero;stroke:none"
         id="path7794"
         inkscape:connector-curvature="0" /></g><g
       id="g7796"
       transform="translate(734.2573,905.2366)"><path
         d="M 0,0 43.47,43.47 0,86.94 -43.47,43.47 -1.428,1.427 Z"
         style="fill:#aa85ba;fill-opacity:1;fill-rule:nonzero;stroke:none"
         id="path7798"
         inkscape:connector-curvature="0" /></g><g
       id="g7800"
       transform="translate(778.001,774.921)"><path
         d="M 0,0 -43.47,43.47 -86.94,0 -43.47,-43.47 Z"
         style="fill:#643186;fill-opacity:1;fill-rule:nonzero;stroke:none"
         id="path7802"
         inkscape:connector-curvature="0" /></g><g
       id="g7804"
       transform="translate(941.4768,1025.5161)"><path
         d="m 0,0 164.533,-164.533 -163.75,-163.749 -164.443,164.443 -0.092,-0.092 120.973,-120.973 -43.378,-43.378 86.94,-86.94 250.69,250.689 L 0,86.94 -86.572,0.368 l 43.47,-43.47 z"
         style="fill:#785099;fill-opacity:1;fill-rule:nonzero;stroke:none"
         id="path7806"
         inkscape:connector-curvature="0" /></g><g
       id="g7808"
       transform="translate(1106.0095,860.9835)"><path
         d="M 0,0 -164.533,164.533 -207.634,121.431 -328.282,0.783 -328.193,0.693 -163.75,-163.75 Z"
         style="fill:#aa85ba;fill-opacity:1;fill-rule:nonzero;stroke:none"
         id="path7810"
         inkscape:connector-curvature="0" /></g></g></svg>