<svg xmlns="http://www.w3.org/2000/svg" xmlns:xlink="http://www.w3.org/1999/xlink" width="300" height="300" viewBox="-8562496.530980317 4360690.912477899 68092.58295093663 63575.11997673102" preserveAspectRatio="xMinYMin meet"><g transform="matrix(1,0,0,-1,0,8784956.94493253)"><path fill-rule="evenodd" fill="#66cc99" stroke="#555555" stroke-width="453.9505530062442" opacity="0.6" d="M -8559974.583463615,4389270.41508 L -8559922.37462243,4389147.852320635 L -8559521.290497104,4389248.707779294 L -8559311.67589594,4389344.8878193395 L -8559428.561361272,4389173.455803518 L -8559269.040530965,4389099.984939593 L -8559332.047362754,4388936.011329655 L -8559174.08500532,4388815.229682145 L -8558941.649908543,4388875.898804627 L -8559002.430350516,4388692.778242273 L -8558965.138321098,4388408.579582278 L -8558190.020706706,4388236.924927474 L -8557722.478845375,4388270.320774711 L -8557633.42325274,4388114.473487602 L -8557789.270539852,4387947.4942514105 L -8558089.833164992,4388047.681793125 L -8558401.527739214,4387925.230353254 L -8558490.472012356,4387390.896797446 L -8558523.867859596,4386967.8827324305 L -8558735.374892104,4386823.167394399 L -8558735.374892104,4386500.340871098 L -8558123.117692739,4386422.417227543 L -8558170.317156836,4386246.977710054 L -8558856.601817576,4385723.10818638 L -8558700.754530467,4385605.888762575 L -8558238.556004694,4385417.313545172 L -8558189.13015078,4385067.659024589 L -8557967.27040563,4385159.386285002 L -8557965.711932758,4384973.594054869 L -8557626.855402784,4384744.943820779 L -8557512.085007774,4384748.394724994 L -8557622.06866468,4384712.54984896 L -8558109.314075882,4384929.288897534 L -8558208.388422688,4384867.840538616 L -8558087.050177721,4384776.113278203 L -8558140.149574831,4384650.210934116 L -8558298.44589074,4384685.053934733 L -8558468.54207267,4384608.243486086 L -8558721.459955754,4384695.072688905 L -8558815.079647511,4384666.908857734 L -8558739.15975479,4384450.503767631 L -8558600.789627733,4384408.758958585 L -8559005.65861575,4384225.081798776 L -8559172.192573976,4384221.185616598 L -8559388.82030306,4384031.831162758 L -8559503.924656536,4384009.67858409 L -8559479.434368566,4383745.072154475 L -8559301.323183294,4383786.483005051 L -8559403.625795333,4383666.925871938 L -8559344.515145725,4383452.079254706 L -8559466.187349161,4383397.644023709 L -8559383.699606482,4383151.182671092 L -8559298.317557042,4383013.480460981 L -8559238.650309978,4382711.693321441 L -8558971.038254112,4382564.862913084 L -8558923.838790016,4382292.241480132 L -8558786.804496849,4382091.087160268 L -8558467.540197253,4382017.838935327 L -8558177.107645772,4382213.983878105 L -8558021.371678155,4381988.561909248 L -8558354.66223359,4381925.332438477 L -8558439.376366083,4381842.065459362 L -8558320.487149917,4381587.366464429 L -8557788.602622906,4381392.779994521 L -8557505.294518838,4381217.897074486 L -8557565.96364132,4381099.675775263 L -8558213.286480283,4381184.055949285 L -8558286.979983186,4381070.5100686755 L -8558207.720505742,4380796.107523871 L -8558263.93684859,4380390.57061891 L -8558495.592708934,4380442.55682111 L -8558454.627136324,4380260.549453664 L -8558156.068262015,4379896.64603826 L -8558031.501751816,4379561.129093009 L -8557833.019099733,4379444.466266657 L -8557700.77154467,4379280.60397621 L -8557702.330017542,4379054.73672939 L -8557948.680050667,4378991.61857811 L -8558060.222180441,4378895.549857556 L -8557795.059153372,4378659.552537075 L -8557690.418832026,4378435.355082617 L -8557142.838256815,4378373.350126245 L -8556751.550246676,4378385.706589724 L -8556288.127206504,4378174.75615467 L -8556026.415083647,4377897.793261576 L -8555903.518365813,4377828.552538302 L -8555607.631159285,4377529.437066541 L -8555508.334173497,4377441.272029833 L -8555487.517428719,4377132.3604428815 L -8555314.860898498,4376802.854750133 L -8555146.7684674,4376709.235058377 L -8554831.845627947,4376625.300162319 L -8554560.22607041,4376872.540751371 L -8554236.397671692,4376879.442559799 L -8553924.92573645,4376608.82487768 L -8553760.39552906,4376556.282078026 L -8553295.747974489,4376618.954951342 L -8553291.183875365,4376188.705119426 L -8553073.665590357,4376137.720792644 L -8552834.21736566,4376325.405454122 L -8552602.227546845,4376771.128695258 L -8552361.666127242,4376935.992861122 L -8552142.812008344,4377009.909003009 L -8551890.228083733,4376952.5794652505 L -8551546.250857182,4376455.092660895 L -8551374.039604926,4376339.20907098 L -8551168.20986645,4376322.733786343 L -8551139.934715789,4376570.197014376 L -8550971.730965199,4376846.825948997 L -8550710.79807878,4376848.941019322 L -8550645.564857176,4376658.584690066 L -8550464.559365142,4376552.163256868 L -8549839.834382812,4376718.697215094 L -8549237.707257112,4376526.559773984 L -8549082.973164909,4376548.934991634 L -8548748.903373037,4376445.296545705 L -8548499.659033153,4376134.269888429 L -8548543.296273543,4376008.144905361 L -8548672.426882863,4375612.738074063 L -8548860.890780777,4375580.455421733 L -8548948.49922003,4375417.595006702 L -8548683.224873472,4375220.670827488 L -8548371.864257721,4375276.441892376 L -8548114.82755348,4375146.42072713 L -8547948.961512197,4374879.031310245 L -8547488.432778787,4374742.108336568 L -8547195.439879019,4374571.566876673 L -8547015.324942915,4374537.503112491 L -8546954.099222979,4374298.166207285 L -8547618.676583014,4374036.120125958 L -8547711.405718846,4373863.79755421 L -8547685.57959698,4372947.415506 L -8548000.502436433,4372440.91182289 L -8548091.561779903,4372334.824348164 L -8548189.634251291,4371895.334998513 L -8548290.489709953,4371764.757235812 L -8548712.279260566,4371552.137008397 L -8548710.275509734,4371272.613767015 L -8548724.079126589,4371139.586975517 L -8548645.598885583,4371055.87471844 L -8548109.038939958,4370836.5753215775 L -8547866.251130536,4370624.177733143 L -8547634.595270198,4370517.867619435 L -8547329.134587461,4370217.750272257 L -8546947.308734039,4370038.080614118 L -8546586.744903361,4370028.395818419 L -8546191.115433082,4369865.758042369 L -8545878.196344461,4369585.010286588 L -8545310.466941416,4369436.064807908 L -8545291.987905944,4369368.605196487 L -8545393.399962056,4369187.377065475 L -8545411.099761091,4369022.6242191 L -8545245.456358792,4368882.806938664 L -8545006.676051041,4368974.311560096 L -8544569.747049678,4369011.26963104 L -8544360.911684949,4368939.468559478 L -8543972.517981572,4368676.086644261 L -8543759.341156702,4368351.701648089 L -8543558.409475822,4368244.6122979475 L -8543340.668551829,4367983.345453056 L -8543013.611887876,4367774.8440467995 L -8542868.896549845,4367571.574656611 L -8542665.515840169,4367330.679278535 L -8541928.914769588,4367160.694416092 L -8541533.396618798,4366951.747731874 L -8541310.646317722,4366993.269901941 L -8540939.729774399,4366909.001047409 L -8540748.705528196,4366750.482092519 L -8540675.568622746,4366664.654765118 L -8540160.715977827,4366574.152019104 L -8540126.09561619,4366560.348402245 L -8539662.67257602,4366142.121075335 L -8538947.556167163,4366089.021678226 L -8538881.321070138,4365740.257713571 L -8538787.25610042,4365468.749475526 L -8538252.25462767,4365172.862268997 L -8538107.761928618,4365169.745323255 L -8537880.447528418,4365292.7533605825 L -8537870.651413228,4365622.926970275 L -8537530.347729873,4365836.549073107 L -8537407.117053565,4365924.825429305 L -8537000.91223166,4366083.90098165 L -8536840.723484408,4366094.253694293 L -8536500.197162073,4365968.351350206 L -8536084.641502943,4365950.65155117 L -8535698.808147853,4366151.694551542 L -8535360.062937366,4366524.948804173 L -8534855.896963567,4366888.852219576 L -8534371.21190065,4367084.106606428 L -8534355.181893976,4367093.680082634 L -8534256.998103097,4367135.424891682 L -8533944.74693142,4367189.97144217 L -8533602.996094687,4367176.056505822 L -8532697.07807861,4367004.1792120375 L -8532329.38980052,4366956.311830997 L -8532143.374931406,4366904.659587268 L -8531935.764081076,4366808.702186204 L -8531682.623559011,4366571.591670814 L -8531519.42918551,4366436.004531029 L -8531207.623291798,4366339.713171492 L -8530582.56435099,4366380.233466141 L -8530425.603868974,4366461.385374929 L -8530069.826776396,4366899.31625171 L -8529821.139033966,4367125.072179039 L -8529144.873127399,4367887.16541301 L -8529192.406549966,4367923.789525481 L -8530396.215523405,4368437.083697529 L -8530700.785650216,4368555.972913696 L -8531562.287189463,4368959.394748329 L -8531994.652091704,4369170.233863893 L -8532333.50862168,4369296.692805434 L -8533258.907548646,4369702.007071412 L -8533736.57948364,4369903.272710767 L -8534042.70808332,4370046.540895418 L -8534233.287051558,4370118.453286471 L -8535247.407612685,4370545.8088116255 L -8535981.337015485,4370894.46145679 L -8536372.736345114,4371055.76339895 L -8536496.078340912,4371122.1098154625 L -8536651.814308532,4371169.64323803 L -8536939.686511723,4371313.579339626 L -8537913.17545871,4371760.861053634 L -8538081.601848282,4371817.522674448 L -8539435.46949531,4372394.60291472 L -8539455.28436467,4372495.68101236 L -8539450.163668092,4373452.694674711 L -8539431.12803517,4373698.599429873 L -8539451.165543513,4373937.491057114 L -8539473.206802687,4374500.322402566 L -8539457.84471296,4374562.327358938 L -8539457.84471296,4374768.268416906 L -8539450.720265549,4375184.937270944 L -8539450.052348604,4375235.476319764 L -8539452.612696894,4375393.438677199 L -8539454.839086708,4376159.428093349 L -8539442.705262212,4376244.698823296 L -8539432.57518855,4376961.707663497 L -8539484.338751765,4377171.990181604 L -8539473.206802687,4377305.573570556 L -8539473.206802687,4377856.605049983 L -8539472.984163707,4377885.65943708 L -8539480.887847552,4378704.636930847 L -8539432.241230076,4378900.5592346415 L -8539430.682757206,4378907.015765108 L -8539472.650205236,4380365.857691953 L -8539450.163668092,4380909.876043461 L -8539454.839086708,4381107.802098091 L -8539468.420064583,4381175.706987474 L -8539450.720265549,4381846.629558485 L -8539474.319997594,4382048.897073257 L -8539487.233058529,4382176.691848689 L -8539464.301243423,4382863.533106882 L -8538784.250474168,4382871.770749201 L -8538526.879811455,4382881.232905919 L -8538216.743710103,4382871.548110221 L -8537502.851815648,4382882.680059299 L -8537363.813771646,4382874.665055961 L -8536385.538086556,4382874.108458508 L -8536239.375595145,4382893.366730414 L -8535841.965013012,4382887.6894363845 L -8535777.17706937,4382870.323595822 L -8534441.454499342,4382871.548110221 L -8533751.830253877,4382881.6781838825 L -8533506.37077668,4382870.21227633 L -8532943.76207021,4382882.680059299 L -8532617.03936473,4382882.568739808 L -8532532.213912748,4382891.140340599 L -8532296.77318972,4382871.659429711 L -8530851.62356024,4382871.993388183 L -8530600.820747482,4382838.152262982 L -8529988.786187103,4382872.883944109 L -8529259.643522404,4382865.536857717 L -8529115.039503865,4382874.776375453 L -8528617.55269951,4382844.497473956 L -8528164.482371982,4382893.255410924 L -8527728.777885018,4382875.110333926 L -8526836.88612478,4382849.618170533 L -8526744.045669459,4382856.297339981 L -8526505.710639669,4382863.310467901 L -8525771.113319926,4382864.423662809 L -8525703.876347488,4382846.723863773 L -8525486.135423496,4382880.342349993 L -8525231.43642856,4382883.236656752 L -8525092.39838456,4382882.791378789 L -8525064.345872879,4382882.680059299 L -8524738.513723329,4382881.121586428 L -8523733.076082481,4382884.461171152 L -8522819.25438256,4382893.812008379 L -8521924.356996074,4382878.783877121 L -8521435.44179251,4382878.449918648 L -8520966.564097287,4382882.568739808 L -8520866.153916592,4382891.140340599 L -8520449.485062554,4382883.236656752 L -8519257.587274628,4382877.448043232 L -8519256.919357684,4382827.1316333935 L -8519257.253316158,4381959.841480623 L -8519256.696718702,4381151.328018991 L -8519255.360884814,4381042.568876487 L -8519255.472204307,4380834.624067686 L -8519219.738647757,4380502.446707157 L -8519235.434695963,4380393.130967199 L -8519247.902478931,4380289.60384076 L -8519256.47407972,4379548.2160320785 L -8519246.455325551,4378879.2972119 L -8519245.008172171,4378779.55494815 L -8519245.564769626,4378323.590313861 L -8519245.676089115,4377445.724809466 L -8519277.40214399,4377033.954013021 L -8519256.808038196,4376012.709004483 L -8519256.808038196,4374756.913828843 L -8519226.863095172,4374528.263594755 L -8519227.753651096,4374509.784559283 L -8519245.119491661,4373537.07484873 L -8519235.21205698,4373169.720529113 L -8519273.283322832,4372972.68503041 L -8519256.919357684,4372837.9884465495 L -8519256.25144074,4371861.605192802 L -8519238.662961196,4371773.217517112 L -8519245.564769626,4371539.446586446 L -8519257.030677177,4371485.456633412 L -8519256.585399212,4370958.581483487 L -8519253.691092452,4370134.260654164 L -8519256.696718702,4369933.551612262 L -8519223.523510449,4368961.064540693 L -8519234.306670593,4368210.007850645 L -8518424.806164008,4368441.759116142 L -8518330.375541462,4368356.400720303 L -8518280.905331064,4368311.683258038 L -8518266.064570135,4368298.268292509 L -8517974.964101708,4368400.682224038 L -8517855.852246562,4368349.475258275 L -8517823.69981645,4367846.295139934 L -8517789.72846903,4367314.64927186 L -8517683.211350227,4367215.119043274 L -8517339.997726224,4366894.418194115 L -8516704.920031248,4367304.407878707 L -8516294.819027167,4367294.166485554 L -8516290.845171211,4367290.647817981 L -8515960.823880335,4366998.429068918 L -8515646.605632279,4366720.203191024 L -8515818.594245553,4366535.74679478 L -8515845.088284362,4366289.842039617 L -8515695.25001114,4366217.287111383 L -8515527.60509662,4366136.109822832 L -8515501.11105781,4365859.3695687195 L -8515645.715076352,4365582.740634098 L -8515593.72887415,4365398.1729183635 L -8516043.459616955,4365305.889060496 L -8516044.142151685,4365254.336358622 L -8516044.608082864,4365219.143994628 L -8516045.251779929,4365170.524751148 L -8516048.190306121,4364948.574194117 L -8516050.584064366,4364767.770642001 L -8515950.621353194,4364592.143847912 L -8515839.308927044,4364396.5764776645 L -8515761.153388303,4364259.263208058 L -8515462.92847247,4363932.874461051 L -8515055.94441413,4363884.561802047 L -8514845.72132361,4363935.424369117 L -8514703.506906277,4363969.832531995 L -8514423.915387664,4364061.970646076 L -8514329.918021135,4364092.947050956 L -8513954.327613853,4364216.721162447 L -8513723.895387297,4364292.659055295 L -8511875.991840128,4364381.71464793 L -8511711.684271717,4364186.905539041 L -8511654.354733959,4364176.775465379 L -8511677.843146518,4364772.891338577 L -8511770.460962856,4365480.104063587 L -8511644.477295829,4365570.208886927 L -8511412.46993293,4365736.142955539 L -8511254.495123029,4365849.128175566 L -8510751.776302608,4365746.602924545 L -8510024.192110782,4365756.844317698 L -8509843.308411313,4365501.2789324075 L -8509799.326739378,4365439.138490974 L -8509797.91192559,4365429.272496344 L -8509796.100261249,4365416.639123151 L -8509719.955942445,4364885.657982751 L -8509852.44614404,4364764.636725568 L -8509874.712880779,4364744.297497145 L -8510090.315888312,4364547.358050229 L -8510279.377360497,4364230.105832186 L -8510299.57816784,4364196.208122295 L -8510328.53959861,4364147.609758791 L -8510315.292579204,4363901.593684138 L -8510116.142010177,4363471.900449676 L -8509853.984609358,4363274.753631481 L -8509538.171213977,4363212.8599946005 L -8509280.911870755,4363448.412037119 L -8509124.174027719,4363642.330590081 L -8508876.599480195,4363965.379752363 L -8508032.686420491,4364184.456510243 L -8507623.364652842,4364359.450749771 L -8507247.104773961,4364907.699241928 L -8506777.336522814,4365929.055569956 L -8506525.42051515,4366147.909688855 L -8505888.56170832,4366520.607344032 L -8504711.484285312,4366957.575148442 L -8504785.496874051,4367150.675661921 L -8504792.512064934,4367161.05084476 L -8504913.782332694,4367340.40465317 L -8504930.991448518,4367365.856237625 L -8504927.90029105,4367376.873039571 L -8504864.867670985,4367601.519599634 L -8504646.29396201,4367804.645103681 L -8504600.261241369,4367847.424354797 L -8504732.508796433,4368031.880751042 L -8504866.93302506,4367974.063878515 L -8504970.62118724,4367929.466819512 L -8505301.351394387,4367642.485172246 L -8505473.340007659,4367406.821810236 L -8505944.558592454,4367234.47848582 L -8505949.676108766,4367232.606807145 L -8506359.777112849,4367283.925092401 L -8506793.435806869,4367322.962861334 L -8506928.619710803,4367335.132058166 L -8507312.226676075,4367345.3734513195 L -8507484.215289352,4367642.485172246 L -8508158.92272305,4368072.846323653 L -8508542.529688325,4368103.570503112 L -8508939.383673001,4368277.785506204 L -8509402.472754702,4368503.20747506 L -8509380.924093802,4368560.663857828 L -8509301.728280706,4368771.828021127 L -8509283.36089955,4368820.801982293 L -8509256.487722823,4368878.377669209 L -8509136.489536189,4369135.473363329 L -8508886.506914876,4369671.060252972 L -8508385.054784054,4369745.492449286 L -8508264.787558796,4369763.34411084 L -8507814.9454965,4369835.03386291 L -8507338.720714884,4369609.611894054 L -8506928.619710803,4369220.327634749 L -8506558.14844544,4369046.223951149 L -8506333.28307404,4369189.603455291 L -8505989.305847488,4369179.3620621385 L -8505711.45239847,4368964.181486434 L -8505505.841360299,4369063.796302926 L -8505499.834046472,4369066.706737455 L -8505314.598413792,4369210.086241596 L -8505311.010673275,4369208.823532612 L -8505023.609264858,4369107.672310067 L -8504913.959566427,4369183.146924825 L -8504927.27539617,4369197.515574661 L -8505261.721655665,4369558.4049282875 L -8505354.339472005,4369906.723614981 L -8505306.93822216,4369934.7889094455 L -8505129.474100603,4370039.861725969 L -8505071.254006919,4370215.635201933 L -8505026.41304752,4370262.878092442 L -8504732.508796433,4370572.525489416 L -8504300.589172155,4371162.741429602 L -8504271.024788225,4371409.444227949 L -8504267.63860288,4371437.700571861 L -8504550.861286094,4371505.33063101 L -8504712.72154232,4371543.980849909 L -8504719.37309652,4371545.5691584395 L -8504715.0522399,4371552.863081537 L -8504599.721720157,4371747.549463482 L -8504573.767202564,4371791.362594111 L -8504541.932476496,4371831.274026225 L -8504299.2069033,4372135.5808771085 L -8504296.025073031,4372139.569961313 L -8504170.491420936,4372206.846248646 L -8504124.036459757,4372231.7424996905 L -8504057.912682226,4372375.122003831 L -8503568.329561716,4372405.846183291 L -8503539.650477719,4372391.044075417 L -8503409.587967847,4372323.915038067 L -8503316.970151505,4372231.7424996905 L -8503258.262219543,4372214.493797553 L -8503128.283614611,4372176.305393274 L -8502896.627754271,4372356.754287851 L -8502882.484919751,4372498.182633039 L -8502875.365731528,4372569.374515265 L -8502973.326883426,4372772.977863926 L -8502841.190647855,4372979.475519348 L -8502779.42962683,4373079.473748821 L -8502763.155684808,4373105.823141399 L -8502805.749367569,4373204.8591481475 L -8502867.239408702,4373347.831714382 L -8503356.711209718,4373409.280073301 L -8503793.30625261,4373358.073107535 L -8504057.912682226,4373327.348928077 L -8504269.531034224,4373460.487039067 L -8504294.666626817,4373550.0272982055 L -8504297.18476303,4373558.997628536 L -8504335.654811753,4373696.039081585 L -8504365.96597945,4373720.300326634 L -8504510.929543003,4373836.330054461 L -8504700.36298027,4373987.953742713 L -8504719.37309652,4374003.169556683 L -8504668.795597378,4374257.225860103 L -8504666.385018902,4374269.334459169 L -8504692.879057711,4374525.257968502 L -8505076.486022985,4374801.664264143 L -8505433.710268939,4374863.11262306 L -8505711.45239847,4374863.11262306 L -8505777.68749549,4375026.974913508 L -8505989.305847488,4375323.752675964 L -8506021.809741808,4375692.130144899 L -8506028.863511384,4375772.072866803 L -8506029.046905702,4375774.1513357125 L -8506003.56548954,4375815.786468714 L -8505972.146654561,4375867.122994303 L -8505790.934514895,4376163.212956036 L -8505346.732794126,4376135.702650882 L -8505129.474100603,4376122.247383423 L -8505129.919378564,4375783.836131412 L -8505085.522726327,4375776.097528371 L -8505063.622151494,4375772.280126695 L -8504957.485487327,4375753.779868898 L -8504679.632038306,4375886.806660396 L -8504335.654811753,4375528.580539023 L -8504335.654811753,4375303.269889658 L -8504203.407256695,4375252.174243384 L -8504167.63738459,4375267.253967585 L -8504136.783066256,4375280.261411648 L -8504057.912682226,4375313.511282811 L -8504071.048382137,4375518.339145869 L -8503926.055945126,4375679.653719396 L -8503859.430030141,4375753.779868898 L -8503528.699822994,4375774.1513357125 L -8503448.836056499,4375777.321763546 L -8503317.38219628,4375782.540212373 L -8503012.733983167,4375794.634122019 L -8503002.419540104,4375783.464842906 L -8502748.12755355,4375508.097752717 L -8502959.85722504,4375241.9328502305 L -8502985.13220778,4375216.347042455 L -8503018.075301718,4375182.998823096 L -8503131.845838316,4375067.82916663 L -8503092.104780104,4374852.8712299075 L -8503008.741811184,4374747.312152961 L -8502946.610205635,4374668.637472645 L -8502602.632979086,4374699.361652103 L -8502353.277319709,4374831.275248694 L -8502020.209403252,4374995.694136596 L -8501589.625612866,4375318.743298878 L -8501180.971762165,4375741.423405419 L -8500845.00953895,4376174.010946643 L -8500887.145418713,4376262.261584999 L -8501054.846779095,4376613.500296294 L -8501319.453208711,4376818.216839864 L -8501506.232553763,4377069.186074981 L -8501570.812618922,4377155.96017493 L -8501566.85583004,4377157.556494659 L -8501541.675189646,4377167.715326531 L -8501266.465131093,4377278.745573275 L -8500948.981943352,4377268.504180122 L -8500753.90373754,4377181.159598149 L -8500446.26312293,4377043.416169737 L -8500300.768548463,4376818.216839864 L -8499877.420524975,4376623.741689447 L -8499798.04972804,4376326.963926992 L -8499828.769385802,4376263.175461169 L -8499854.822668344,4376209.076586242 L -8499635.3006325,4376014.490116335 L -8499401.19574336,4376193.825816003 L -8499348.318985233,4376347.446713299 L -8499361.45468515,4376623.741689447 L -8499306.101866066,4376688.009225702 L -8499255.701168895,4376746.527087793 L -8499043.971497405,4376818.216839864 L -8498946.174879843,4376725.726306329 L -8498924.970961748,4376705.67283467 L -8498941.223607404,4376425.481676344 L -8498819.106126001,4376367.818180113 L -8498795.010906583,4376336.750103834 L -8498580.993735196,4376060.7990245065 L -8498553.825762803,4376018.16266064 L -8498553.298670668,4376017.335462659 L -8498149.063000308,4375382.943654644 L -8498134.825216098,4375360.599427417 L -8497935.89728605,4375347.6863664845 L -8497749.437138971,4375424.942093095 L -8497840.199619606,4375496.420760567 L -8497945.916040221,4375579.676185298 L -8498091.521934178,4375845.841087785 L -8498130.303370079,4376106.308540678 L -8498131.1516729,4376112.00599027 L -8497985.657098433,4376275.756961226 L -8497982.752376366,4376277.596025886 L -8497694.6679495,4376459.99071849 L -8497325.115025857,4376538.79007993 L -8497310.949664736,4376541.810544223 L -8496925.895546082,4376529.788039218 L -8496931.123926021,4376534.643728414 L -8497197.626423107,4376782.1493248455 L -8497452.66033345,4377093.759975404 L -8497456.555558695,4377098.519317681 L -8497490.619322877,4377341.418446591 L -8497393.771365888,4377536.004916499 L -8498009.368149973,4377722.576383067 L -8498369.264063705,4377739.2743066875 L -8498708.569747236,4377962.799459369 L -8498726.488309665,4377974.603710225 L -8499149.83633315,4377790.481272451 L -8499440.825482083,4377800.722665605 L -8499533.443298426,4378128.113288027 L -8499505.754313989,4378157.200874203 L -8499348.318985233,4378322.588438444 L -8499335.07196583,4378516.952269369 L -8499189.894654796,4378629.241516409 L -8499163.083352555,4378649.979060866 L -8499170.355388591,4378964.509897004 L -8499176.33037196,4379222.940479979 L -8499140.338706236,4379237.604931907 L -8498929.217046509,4379323.62438583 L -8498924.970961748,4379325.35441151 L -8498686.85857094,4379345.725878324 L -8498679.738721102,4379344.992326106 L -8498209.238183696,4379296.5170463575 L -8498091.521934178,4379284.388838897 L -8498051.55681835,4379269.610224379 L -8497787.174446348,4379171.844833706 L -8497701.951500714,4379034.35636453 L -8497514.173385246,4378731.417696425 L -8497453.54993244,4378633.61509572 L -8497085.082417917,4378799.36981751 L -8497195.733991766,4378986.609201024 L -8497489.060850007,4379276.26251607 L -8497636.002577852,4379562.464926899 L -8497831.145645214,4380015.423934937 L -8497860.297168618,4380077.27679825 L -8498012.151137242,4380399.476178173 L -8498408.78248294,4380804.345166188 L -8498516.15484757,4381031.721938354 L -8498541.252676984,4381084.870282988 L -8498686.85857094,4381279.234113913 L -8498501.622938262,4381391.778119105 L -8498431.088884106,4381427.208350765 L -8498237.016508644,4381524.693591112 L -8498150.49167432,4381653.388781579 L -8498065.027895369,4381780.505780956 L -8497998.904117836,4382209.976376436 L -8498131.1516729,4382496.401426246 L -8498077.443183519,4382762.231323224 L -8498065.027895369,4382823.680729179 L -8498021.920465803,4382868.886537238 L -8497879.79226269,4383017.933240612 L -8498038.533856563,4383130.477245806 L -8498329.634324985,4383109.994459499 L -8498544.651455333,4383257.762192841 L -8498567.74671579,4383273.634110965 L -8499018.479334015,4383204.6160266735 L -8499255.701168895,4383222.5384646915 L -8499499.402140958,4383480.270050731 L -8499507.060579106,4383488.369408705 L -8499652.555153571,4383805.407318484 L -8499665.79958649,4383804.91894661 L -8499930.297283104,4383795.165925331 L -8500233.9854153,4383903.471531047 L -8500274.274509652,4383917.840004186 L -8500062.656157656,4384388.164852787 L -8500049.724225108,4384637.783752536 L -8500049.409138251,4384643.865723139 L -8500089.06078566,4384866.165380087 L -8500106.182078557,4384851.3652539775 L -8500220.618515091,4384908.694791736 L -8500274.942426596,4385325.141006795 L -8500368.896076828,4385406.626874055 L -8500473.759037154,4386016.32372513 L -8500937.516035799,4386189.870811277 L -8501061.19199007,4386456.480991726 L -8501685.583013931,4386555.889297005 L -8501704.95260533,4386733.777843293 L -8501590.961446756,4387134.973288111 L -8501653.634320073,4387294.048840456 L -8501491.553141478,4387480.842946006 L -8501497.341754999,4387690.012269207 L -8501574.374842629,4387855.210393543 L -8501804.80618857,4388349.357613176 L -8501858.350863641,4388372.178108787 L -8501869.816771192,4388382.642140923 L -8502247.857761927,4388657.823922164 L -8502618.329027288,4388750.553057995 L -8502691.46593274,4389271.86223338 L -8502390.458029633,4389623.297865814 L -8502319.658833487,4390014.808514934 L -8502535.952604098,4390244.126665968 L -8502500.8869645,4390491.255935528 L -8502577.252135184,4390804.508982621 L -8502465.376046937,4391044.847763244 L -8502688.126348013,4391241.994581439 L -8502714.286428351,4391375.689289881 L -8502925.014224421,4391596.769798596 L -8503348.807525873,4391752.171807744 L -8503557.53157111,4391973.36363595 L -8503310.624940531,4392162.71808979 L -8503268.323534029,4392498.5689935135 L -8503328.213420076,4392634.2674527895 L -8503726.403238643,4392634.490091771 L -8503893.605113816,4392941.731886361 L -8503883.808998626,4393171.60663485 L -8504002.252936827,4393333.1312159905 L -8504312.38903818,4393591.169795649 L -8504732.397476941,4393616.55063955 L -8504844.384884682,4393676.774484068 L -8505012.032037813,4394085.539654261 L -8505366.361977011,4394228.696519422 L -8505550.484414782,4393991.25204556 L -8505710.895801015,4394072.73791282 L -8505755.757555805,4394498.757604087 L -8505922.848111486,4394568.888883285 L -8506054.984347057,4394729.745547484 L -8506649.764386363,4394693.678032465 L -8506839.89807664,4394751.230209205 L -8507135.228685716,4394716.943806042 L -8507355.752596976,4394992.2369067725 L -8507569.819977771,4395021.40261336 L -8507660.100084806,4395246.156665273 L -8507893.314418018,4395637.555994902 L -8508063.63323893,4395816.89169457 L -8508390.578583391,4395769.2469525095 L -8508495.330224227,4395813.886068318 L -8508551.101289114,4396264.8413255215 L -8508352.507317541,4396298.125853269 L -8508386.793720702,4396465.8843258945 L -8508231.614350537,4396586.2206954425 L -8508157.698208652,4396783.812791601 L -8507997.286822418,4396856.8383775605 L -8508143.894591793,4397005.895175733 L -8507916.914150065,4397311.355858469 L -8508094.468737882,4397488.687807304 L -8508048.827746654,4397711.32678889 L -8508172.281061945,4397856.042126921 L -8508360.96759884,4397870.0683827605 L -8508790.32687483,4397561.268115301 L -8508811.477578081,4397403.083118883 L -8508925.691375634,4397338.517814224 L -8509277.015688578,4397448.8354295995 L -8509939.81193676,4397932.518617096 L -8510149.092579452,4398061.4265874345 L -8510772.147769423,4397885.096514018 L -8511090.632832581,4398028.030740197 L -8511409.674493194,4397920.830070562 L -8511512.645022176,4397971.257799892 L -8511511.75446625,4398305.216272271 L -8511850.165718265,4398512.604483619 L -8512100.077975096,4398551.232346925 L -8512539.456005257,4398668.56309022 L -8512672.928074716,4398884.300263379 L -8512928.628945068,4399026.566572613 L -8513135.571878454,4399050.611582624 L -8513243.997062484,4398834.206492522 L -8513461.849305969,4398750.605554935 L -8513514.614744605,4398813.946345197 L -8513423.889359608,4398995.50843468 L -8513573.502755236,4399191.096780005 L -8513890.985942977,4399301.303075891 L -8514114.404160999,4399289.725848847 L -8514290.734234415,4399532.402338777 L -8514760.725124545,4399799.680436172 L -8515042.140797269,4399820.71981993 L -8515316.543342074,4399971.891688429 L -8515336.469530929,4400075.418814867 L -8515546.529410055,4400012.634622059 L -8515667.756335529,4399859.681641708 L -8515830.060153106,4399736.33964591 L -8516037.559683945,4399841.870523183 L -8516495.305430086,4399908.99617613 L -8516889.153788513,4399767.843061804 L -8517121.588885289,4399857.455251893 L -8517338.884531317,4400353.383583377 L -8517781.71346569,4400367.966436672 L -8517730.172541454,4400680.440247328 L -8517927.987276595,4400740.107494393 L -8518059.678234205,4401206.536160817 L -8518449.407771472,4401207.9833141975 L -8518395.306498947,4401448.099455838 L -8518825.667650353,4401567.879227933 L -8519059.549900508,4401968.96335326 L -8519393.285733907,4401993.453641235 L -8519522.638982207,4402015.38358092 L -8519560.487609077,4402261.065697101 L -8519511.952311091,4402832.913921307 L -8519738.82143333,4402834.361074687 L -8519817.858271793,4403047.537899556 L -8519732.92150032,4403199.934282452 L -8519398.406430483,4403286.874804762 L -8519507.833489932,4403443.723967289 L -8519478.779102838,4403576.750758788 L -8519534.550167724,4403972.602868048 L -8519798.154721923,4403905.699854081 L -8519959.456664082,4404001.879894126 L -8520042.612323705,4404406.637562651 L -8520232.523374997,4404500.925171354 L -8520439.021030417,4404810.61599474 L -8520415.755256841,4405006.7609375175 L -8520533.642597593,4405470.851894635 L -8520823.184593149,4405471.965089543 L -8520867.935028443,4405565.250822826 L -8520785.113327296,4405873.4944928335 L -8520941.071933897,4406051.16040014 L -8520920.923106065,4406203.668102527 L -8521264.900332615,4406940.380492596 L -8521639.935697097,4407067.729990064 L -8521868.697250677,4407075.63367391 L -8522128.85090066,4407399.796031101 L -8522178.499393556,4407567.331864745 L -8522330.339178996,4407667.296767476 L -8522627.673538905,4407812.791341943 L -8522560.547885954,4407991.347805175 L -8522796.87916491,4408426.050416725 L -8522943.486934287,4408946.357716691 L -8522841.406961229,4409137.827240855 L -8523081.41178338,4409411.116590754 L -8523099.890818851,4409623.95945715 L -8523197.851970749,4409866.413308097 L -8523264.977623696,4411094.601250021 L -8523298.707429405,4412283.938689656 L -8523386.42718815,4414354.035940448 L -8523367.168916246,4415230.342971972 L -8523442.754850492,4417636.291126486 L -8523498.637234872,4417733.918319913 L -8523532.25572109,4418544.9921298325 L -8523674.967772268,4421744.084937929 L -8528122.171427926,4421740.964202761 L -8533191.450745514,4421737.406938584 L -8533194.397038177,4421737.404871079 L -8533517.709100384,4421737.177993386 L -8536584.239986317,4421735.026117386 L -8537944.235548751,4421734.071768022 L -8538504.338745039,4421733.678726941 L -8539528.977867575,4421732.959707171 L -8539940.859983511,4421732.959707171 L -8544638.576924402,4421713.184134123 L -8545402.037700951,4421709.9702592725 L -8547900.427153392,4421699.4530051 L -8548217.909401953,4420922.108536232 L -8548464.148115588,4420183.392395328 L -8548779.96151097,4419417.40297918 L -8549035.996339794,4418660.430441785 L -8549180.711677827,4418359.867816642 L -8549715.045233632,4416934.978334489 L -8549816.012011783,4416698.981014008 L -8550097.65032349,4415976.183560287 L -8551972.49318743,4410857.713373612 L -8552814.959093753,4408494.511903562 L -8552998.41361458,4407926.782500516 L -8553020.120915286,4407878.915119475 L -8553084.463580962,4407667.964684421 L -8553155.040138127,4407461.689667982 L -8553417.308858436,4406854.330526214 L -8553856.798208088,4405535.417199294 L -8555648.708051387,4400637.804882354 L -8555687.892512146,4400503.998854421 L -8555741.214548236,4400348.262886802 L -8556316.068398692,4398602.105354218 L -8556390.318499051,4398322.804751817 L -8556761.90295932,4397220.296515 L -8556949.698940288,4396460.207031864 L -8556984.987218868,4395906.949162622 L -8556968.177975759,4395899.824715209 L -8556743.201284865,4395741.417079812 L -8556791.51394387,4395440.297857217 L -8557052.3355108,4395167.231146299 L -8557663.368195765,4395115.578902572 L -8557865.301752063,4395224.89464253 L -8557946.119702378,4394988.897322049 L -8557735.169267323,4394776.611053105 L -8557897.473084899,4394522.246016644 L -8558324.828610057,4394505.548093025 L -8558438.374490667,4394584.8075704705 L -8558609.138589544,4394309.180511265 L -8558576.41065925,4394014.295180153 L -8558691.51501273,4393783.195917266 L -8559196.68286195,4393615.882722605 L -8559111.300812513,4393453.801544011 L -8558743.389895441,4393435.433828028 L -8559011.66986825,4393028.004491726 L -8559578.286076391,4392867.704424984 L -8559121.876164138,4392556.009850763 L -8558876.97328439,4392266.5791747 L -8559700.737516263,4392377.898665492 L -8559689.605567183,4392144.127734827 L -8559088.368997408,4391832.433160606 L -8558965.917557536,4391709.981720734 L -8558676.486881474,4391620.926128099 L -8558175.549172902,4391876.960956923 L -8557919.51434408,4391865.829007844 L -8557841.590700522,4391643.190026257 L -8558014.135911252,4391437.916885234 L -8558442.827270295,4391097.724521371 L -8558498.487015694,4390908.481387021 L -8559032.820571505,4391019.800877814 L -8559188.667858616,4391119.988419529 L -8559556.022178233,4391042.0647759745 L -8559556.022178233,4390930.74528518 L -8559188.667858616,4390774.89799807 L -8559055.084469663,4390496.599271087 L -8559466.966585597,4390363.015882134 L -8559834.320905214,4390418.675627532 L -8559628.491166737,4390227.3174228575 L -8559482.662633797,4389888.683531865 L -8559567.042807817,4389745.081388742 L -8559855.916886428,4389832.578508504 L -8559918.812398726,4389667.8256621305 L -8559876.622311715,4389529.678174056 L -8559714.986411083,4389440.511261931 L -8559908.793644555,4389410.78895789 L -8559974.583463615,4389270.41508 z" /></g></svg>