<svg xmlns="http://www.w3.org/2000/svg" xmlns:xlink="http://www.w3.org/1999/xlink" width="300" height="300" viewBox="-16089202.733851492 4245849.815979397 10621844.854275916 5413033.739164412" preserveAspectRatio="xMinYMin meet"><g transform="matrix(1,0,0,-1,0,13904733.371123206)"><g><path fill-rule="evenodd" fill="#66cc99" stroke="#555555" stroke-width="70812.29902850611" opacity="0.6" d="M -13674486.24904573,5454655.048870417 L -13358338.895192828,5454655.048870417 L -13027854.704120666,5454655.048870405 L -12918424.305086154,5454655.048870405 L -12579102.459639914,5454655.048870405 L -12250709.961799758,5454655.048870405 L -11916751.489419937,5454655.048870405 L -11582599.321126139,5454639.464141701 L -11204306.748342989,5454655.048870417 L -10823451.600882309,5454732.97251396 L -10593059.162122758,5454655.048870405 L -10592727.484678911,5497429.563207721 L -10555044.723850481,5497963.896763528 L -10535276.608675411,5436843.930343482 L -10500671.831767414,5418001.993331811 L -10422940.770931197,5411158.071037842 L -10309298.042365067,5393429.328934097 L -10201318.13629559,5358920.28678819 L -10111149.348753039,5373391.820591316 L -9974226.375077315,5344448.752985076 L -9937815.711789541,5345540.602890793 L -9838206.668153265,5377056.189825105 L -9733753.189895226,5336656.388629535 L -9624904.792305019,5293613.373839133 L -9534777.461941447,5256530.713936715 L -9448361.99293945,5220893.393309146 L -9437581.631542182,5191618.441787964 L -9411367.060097493,5180662.62626977 L -9418174.386615835,5169632.624643305 L -9388318.499185076,5166200.644742151 L -9366657.898528893,5177717.298075853 L -9361062.062590158,5151356.035480889 L -9338677.280686678,5133712.829288022 L -9308105.119189467,5133712.829288022 L -9291787.885943284,5120105.067876471 L -9305513.57553447,5100313.267776545 L -9189526.89641366,5048062.455305159 L -9165797.864180172,4947038.170853083 L -9143520.524869027,4850311.279535439 L -9176065.62608954,4784511.714294898 L -9228385.78676238,4723285.994358597 L -9252876.0747369,4684324.172580952 L -9255325.068058237,4672711.440998702 L -9242836.186204733,4656805.5182327395 L -9205018.63240237,4639251.477248875 L -9177098.416798506,4639251.477248875 L -9047797.358566716,4698687.279787046 L -8933105.013124876,4716183.794829622 L -8787489.597943967,4771555.389615852 L -8785334.21340515,4782841.921932999 L -8795352.967576547,4816794.366624948 L -8813350.384849738,4838650.771236464 L -8763101.475135157,4856322.740399971 L -8653741.784450661,4856764.251999347 L -8551567.083832966,4856734.050880171 L -8515941.04568543,4900112.429557857 L -8502026.10933627,4908778.7750623375 L -8384384.784660846,4988944.393162206 L -8334156.3172200145,5009430.519052902 L -8165043.086391595,5010198.623539365 L -7959906.868342474,5010289.905521816 L -7948768.240093699,5037763.555849595 L -7913125.965531512,5043356.247067065 L -7865835.21945271,5060584.051462217 L -7826316.800221099,5111234.419773156 L -7792361.015944427,5197848.775974678 L -7707451.629063894,5281862.82019076 L -7670469.513110518,5252610.17308062 L -7595823.115364178,5271518.901786756 L -7546399.487841781,5239403.2286928985 L -7546497.448993678,5087613.537021732 L -7473702.294379234,5024686.85526611 L -7349986.265091223,5038243.342854914 L -7171812.740907139,5041886.829788579 L -7365090.093602052,4949834.5164618045 L -7360823.217519946,4855608.133479838 L -7276293.875380983,4847432.830075979 L -7151894.344419499,4927616.259294376 L -7041482.107476189,4972657.238464242 L -6794928.359682524,5038904.580630226 L -6657225.036376336,5111835.54502344 L -6729107.371166277,5152159.917368395 L -6736849.641750949,5232898.830845849 L -6848455.223635561,5107757.912075683 L -7032418.474535802,5091644.415783355 L -7177011.361127184,5147245.161849873 L -7213340.476947569,5231233.4912635805 L -7248618.7367748665,5351222.543999835 L -7143481.93050025,5425988.053601321 L -7242029.736114811,5480567.999937263 L -7408582.618654983,5469471.673094989 L -7642083.042958231,5376731.405315113 L -7820775.3159694085,5230464.273582199 L -7915325.638669584,5212168.915270326 L -7787201.357546158,5314935.729585952 L -7626625.218466677,5462264.849261033 L -7484711.792018688,5511601.6475806115 L -7391508.435157112,5591463.363470615 L -7276210.385762886,5599170.011818233 L -7109142.093980341,5598367.398289613 L -6871046.401097149,5574931.305892905 L -6682853.009546765,5592999.572443562 L -6542783.0338663105,5684451.87371496 L -6359338.531793168,5724017.047132705 L -6279438.967276297,5763087.962011329 L -6198645.507248354,5804937.411380151 L -6206765.150906815,5930029.349574368 L -6251492.209112644,5972011.269137236 L -6338185.60215263,5986797.837099306 L -6382302.629548913,6080994.163818759 L -6453756.384299299,6116503.968186906 L -6631259.7651488045,6145288.962116229 L -6731325.968617788,6208898.0323504135 L -6879395.362906644,6271678.885573097 L -6834632.682463761,6341587.5257912725 L -6957730.88857787,6475129.726531607 L -7102712.280192122,6617119.963428244 L -7189404.560037199,6716526.042316821 L -7263059.101120569,6664776.950631752 L -7369548.439208321,6541947.024490454 L -7530736.835487166,6480136.87722749 L -7611420.089219223,6545704.057304727 L -7713093.746135261,6563103.293715715 L -7750099.684459668,6703798.884934426 L -7746770.118490039,6797325.068319304 L -7945282.826836963,6805758.632941802 L -7979056.047148733,6848970.632877934 L -8116140.4340861095,6913504.768080611 L -8219817.841836426,6951212.019197017 L -8312026.002450311,6921969.502160531 L -8426463.552180704,6932799.775419809 L -8617316.366366139,6963093.148449382 L -8694816.995856415,6937390.591220124 L -8657619.588007845,6763536.2632788215 L -8609088.742801607,6662762.067848395 L -8740459.100276567,6546095.901912319 L -8605248.22036924,6462329.098285289 L -8529654.493756253,6367767.643636035 L -8520546.333019547,6293361.695989812 L -8582242.934401903,6215792.048415242 L -8708383.50219939,6137761.538148788 L -8886588.195840897,6085582.753229258 L -8808066.766620046,6026998.644809481 L -8749924.596578717,5851183.980635309 L -8810159.573046958,5736730.846176205 L -8895862.222618883,5700495.238728086 L -9061490.040190564,5806188.642456668 L -9142115.407787409,5930771.850577961 L -9176755.80693246,6042674.655502991 L -9158571.768111378,6139082.900504504 L -9279653.978247222,6149833.02373041 L -9463471.400614522,6156257.271544091 L -9581403.269160915,6203148.380650941 L -9720886.591124887,6233795.749661238 L -9800543.479151832,6286391.982671244 L -9911835.140072405,6328704.521121767 L -10118684.565084834,6376901.4078556225 L -10274458.381331494,6354905.78966978 L -10326510.262031522,6439354.981775372 L -10376648.560684811,6543595.666149103 L -10540241.457964791,6562152.625264341 L -10534086.60331883,6691437.968676741 L -10490919.131179014,6779206.707997791 L -10370187.577439172,6904556.907410648 L -10233981.501284152,6994769.109554607 L -10104474.632085074,7008698.517437571 L -10097120.866523271,7081051.733673568 L -10009229.67576235,7128090.897703173 L -9849878.051081594,7135464.700773319 L -9720778.611218818,7210790.147413497 L -9688294.470610432,7259474.6135170255 L -9581001.405799154,7353348.113713178 L -9547809.273229323,7409239.403650664 L -9432703.806554168,7375728.897337165 L -9277873.979589436,7392898.815597119 L -9059907.077031484,7470737.856339408 L -9045741.671828039,7524881.43027144 L -9124230.818396563,7584478.546057436 L -9041391.306127837,7643827.419378961 L -9048096.07905832,7699080.848634203 L -9197503.533626508,7754322.032745456 L -9362059.344501851,7770700.469425871 L -9520262.152037619,7779240.900759531 L -9526347.988599287,7657062.193639373 L -9607547.764768623,7560982.341135698 L -9723776.445105882,7480527.2923597675 L -9831458.014940029,7555630.10001836 L -9798303.73099707,7638195.76633973 L -9931385.06904552,7709846.556588819 L -10080147.98376202,7622601.0188745 L -10079657.064807622,7736444.122524057 L -10286691.28017477,7758965.168706445 L -10187919.722383711,7813658.660922996 L -10339151.703406006,7939160.254843332 L -10451783.650995733,7988303.35724893 L -10598595.135038624,8006156.7771823555 L -10730213.734978052,7925371.10951877 L -10739137.10536004,7802356.393022753 L -10609201.656121409,7757377.752767731 L -10489949.538414208,7688729.249185337 L -10540285.985761108,7576830.897039937 L -10629834.72373994,7579822.051757552 L -10700684.01365532,7491064.79535826 L -10700019.436295284,7596374.146843604 L -10872516.779643819,7634139.284095224 L -10971493.165297933,7614691.769053638 L -10958646.896060389,7545418.763127892 L -11121034.203255076,7548091.544101839 L -11293844.354372738,7530417.348548589 L -11490525.857096111,7580606.854167646 L -11614843.011634408,7571729.124776881 L -11726709.081127476,7632200.0985656055 L -11816563.947705992,7658780.966577221 L -11905619.540340608,7647649.017497894 L -12041118.73772909,7642519.415362139 L -12113006.63849357,7604416.980053418 L -11999393.966189954,7557186.346499649 L -12120488.421469785,7500867.589717516 L -12239153.885460507,7567614.7563971635 L -12333976.940913126,7548142.751067602 L -12634458.302826686,7535010.390738722 L -12835681.640774421,7558883.968734248 L -12679060.683202825,7614130.718820039 L -12829226.223503321,7670570.813847139 L -12938267.004320055,7663401.83864005 L -13091470.453524297,7682300.548592025 L -13351980.325878717,7723108.047527022 L -13522230.128708133,7769853.328100936 L -13657064.748736577,7776282.028694246 L -13699096.762070302,7743797.888085861 L -13835863.888458919,7725538.152011039 L -13850908.71763963,7809997.362870804 L -13999129.506435966,7734542.785621309 L -14187348.501469234,7834355.180651282 L -14264275.835581925,7846225.177954567 L -14289143.49663023,7793795.924180753 L -14372206.761075452,7767792.804326352 L -14448681.024860615,7813925.8277009 L -14630872.069467422,7786187.236985031 L -14797616.421531765,7737299.05621335 L -14962969.279961182,7750890.052844301 L -15097790.541650733,7716123.8626746535 L -15195509.017058881,7669694.729454594 L -15311590.755668296,7679933.89621776 L -15486825.44529543,7733478.571289323 L -15694488.349773835,7760304.164016776 L -15694489.728980467,7760304.342180688 L -15695213.305670626,7347089.73194078 L -15695801.072582014,6713276.6263805665 L -15586175.864438612,6709984.90903781 L -15477750.680405965,6679169.447596414 L -15400037.430688271,6630423.755772948 L -15301142.308262434,6557274.60517778 L -15192852.93400856,6619489.955387238 L -15081100.410396095,6655545.225260267 L -15022008.685098307,6597968.558232181 L -14946991.593447626,6552388.792726869 L -14845073.033651844,6502202.626692532 L -14775482.767177336,6422343.137192345 L -14661646.342697224,6295353.201680102 L -14472399.868763939,6224521.722883259 L -14469307.413309697,6154298.0485061295 L -14531213.295334747,6100617.563655797 L -14531213.178753944,6100614.722426085 L -14528860.001299378,6043264.648804195 L -14394192.36050712,5962448.924878093 L -14374662.469042351,5872702.038205649 L -14232232.52015708,5825305.538610597 L -14248088.868425673,5756979.861551501 L -14186067.214130202,5658437.621911479 L -13984467.616303584,5612345.786748525 L -13904944.31166559,5564255.766725831 L -13689426.437905092,5454937.553000374 L -13674486.24904573,5454655.048870417 z" /><path fill-rule="evenodd" fill="#66cc99" stroke="#555555" stroke-width="70812.29902850611" opacity="0.6" d="M -9350132.57425826,6952213.894614155 L -9325748.039799994,6922103.085549483 L -9247150.913325401,6919532.718507067 L -9116871.486860218,6980934.32323882 L -9114504.834485952,7002505.814164741 L -9267401.041895606,7003564.462522185 L -9350132.57425826,6952213.894614155 z" /><path fill-rule="evenodd" fill="#66cc99" stroke="#555555" stroke-width="70812.29902850611" opacity="0.6" d="M -8880605.121627718,8104382.0035898695 L -8848369.078898918,8097624.9702894585 L -8726520.812109519,8112592.1897280095 L -8606603.85423479,8110242.175758399 L -8488267.444244938,8106996.149957221 L -8498129.927158505,8137753.668702656 L -8690093.472329745,8198895.539764173 L -8944861.484805495,8210894.454604318 L -8998386.938512348,8203487.706563484 L -9003086.117151259,8163412.62193388 L -8880605.121627718,8104382.0035898695 z" /><path fill-rule="evenodd" fill="#66cc99" stroke="#555555" stroke-width="70812.29902850611" opacity="0.6" d="M -8940668.87426063,6911333.481412689 L -8945873.61705267,6903644.087586144 L -8916642.231965264,6870427.464728339 L -8867434.564255007,6860963.081621094 L -8823830.71971128,6919472.049384583 L -8852128.13427093,6942296.441179383 L -8897698.994216971,6944733.224832847 L -8940668.87426063,6911333.481412689 z" /><path fill-rule="evenodd" fill="#66cc99" stroke="#555555" stroke-width="70812.29902850611" opacity="0.6" d="M -10420924.319315625,8346735.114689225 L -10461554.891646946,8381966.87743072 L -10558744.969452085,8421009.733782507 L -10718796.519599076,8391021.460589364 L -10778056.868016336,8340904.860539744 L -10643109.638647186,8311877.2705660965 L -10481499.135491306,8303582.029832448 L -10420924.319315625,8346735.114689225 z" /><path fill-rule="evenodd" fill="#66cc99" stroke="#555555" stroke-width="70812.29902850611" opacity="0.6" d="M -10446221.35199678,8629486.621305272 L -10432935.735856444,8642214.235815119 L -10511073.221907178,8662883.306519696 L -10735240.309916092,8664511.290658133 L -10705556.92421177,8633395.50901575 L -10496939.098132854,8626296.807860881 L -10446221.35199678,8629486.621305272 z" /><path fill-rule="evenodd" fill="#66cc99" stroke="#555555" stroke-width="70812.29902850611" opacity="0.6" d="M -10770650.403075578,8768170.160561042 L -10835531.035956623,8775536.357342899 L -10979662.281852312,8779983.112604417 L -10970855.060241206,8733916.338821433 L -10923145.920834463,8692143.876555553 L -10832482.161068391,8666288.842243914 L -10667779.638568306,8689258.950599989 L -10637610.158660106,8729486.841342302 L -10770650.403075578,8768170.160561042 z" /><path fill-rule="evenodd" fill="#66cc99" stroke="#555555" stroke-width="70812.29902850611" opacity="0.6" d="M -9812852.109530825,8281313.737960077 L -9584324.555172324,8283286.877746238 L -9264998.05508572,8300429.608249896 L -9122503.422219656,8286896.630562027 L -8956518.071228866,8310813.040652281 L -8887072.754906662,8340404.384850541 L -8911961.353404675,8386459.653445269 L -9031186.743019966,8428442.085396845 L -9212071.312804209,8436271.366006067 L -9438737.902962059,8426796.843476025 L -9615687.69836224,8402664.71110594 L -9778112.193587337,8411989.666188639 L -9928260.652941694,8416885.123792198 L -9998965.787378093,8443335.551596165 L -10126696.387412734,8468520.408691809 L -10101336.076196164,8510330.262819523 L -10197424.532225646,8546945.524448982 L -10416601.244827874,8546698.162901446 L -10540184.22449569,8582496.556164622 L -10769617.81242947,8589566.494348848 L -10811502.450280858,8543890.896966618 L -10682491.89805257,8509415.600353051 L -10452212.678781869,8495819.344129764 L -10340457.032642748,8447218.552633068 L -10326918.302360749,8392022.411967764 L -10288419.066154128,8330901.0993498545 L -9992563.1501128,8295033.674957135 L -9812852.109530825,8281313.737960077 z" /><path fill-rule="evenodd" fill="#66cc99" stroke="#555555" stroke-width="70812.29902850611" opacity="0.6" d="M -12385901.174406277,8699947.270491198 L -12548443.597811013,8688603.154869312 L -12638578.118917245,8653109.64909496 L -12473481.543719344,8617155.935790306 L -12265953.834227825,8649192.132493284 L -12228941.643603483,8682511.157686973 L -12385901.174406277,8699947.270491198 z" /><path fill-rule="evenodd" fill="#66cc99" stroke="#555555" stroke-width="70812.29902850611" opacity="0.6" d="M -12352418.200279918,8772470.224672278 L -12412124.374742158,8777541.136396768 L -12526324.87338599,8744207.729717758 L -12528128.311645353,8728327.693625357 L -12343251.441535763,8728218.39433691 L -12207645.540138872,8749931.56087586 L -12352418.200279918,8772470.224672278 z" /><path fill-rule="evenodd" fill="#66cc99" stroke="#555555" stroke-width="70812.29902850611" opacity="0.6" d="M -6189387.985637836,5712590.623869444 L -6167876.159893396,5742780.237857096 L -6219528.702575393,5747658.437678271 L -6316117.634294076,5709291.511136609 L -6385140.134947816,5645932.439402619 L -6500145.996769674,5468634.61205765 L -6593634.280252963,5401576.622298877 L -6545206.06658013,5371335.234964067 L -6614547.836208014,5332142.811164931 L -6597462.631645644,5299180.446807227 L -6381415.330249454,5295780.663677139 L -6261810.269421663,5302430.662489968 L -6154990.349045008,5275381.964896612 L -6233611.053002559,5223079.379078067 L -6167185.848597947,5219213.635823551 L -6038022.852625248,5315759.423086269 L -6007007.7413801225,5301613.794123686 L -6031171.513017914,5210538.723877403 L -5957981.257917898,5189524.4975251 L -5907631.677806063,5193666.365297796 L -5860759.540845054,5291633.043310313 L -5895329.755261743,5360830.998084981 L -5909521.404977355,5419901.510895993 L -5987431.663560006,5400863.300626913 L -5952982.253620019,5482389.064619479 L -6063992.938819464,5516625.628576701 L -6115352.099200895,5489499.270962606 L -6214121.264094372,5520013.906518532 L -6175058.273663134,5558829.535402235 L -6249821.863257361,5582685.543254138 L -6322488.632291661,5545080.835434536 L -6248812.282987764,5642452.119954728 L -6189387.985637836,5712590.623869444 z" /><path fill-rule="evenodd" fill="#66cc99" stroke="#555555" stroke-width="70812.29902850611" opacity="0.6" d="M -9337771.247111402,7247969.50201959 L -9402490.807356842,7277152.412034711 L -9459458.747013798,7259980.918560409 L -9480113.436233055,7308935.494596021 L -9560546.207341159,7318007.335537052 L -9598510.452293811,7216054.109793317 L -9612745.246465387,7128436.348618409 L -9709506.75600793,7073378.270212197 L -9558644.97498161,7084066.590103405 L -9520421.863293167,7018958.729754273 L -9362015.555066995,7076547.949577135 L -9251629.026330518,7135788.163914944 L -9189109.833339324,7085677.316459452 L -9015879.09004338,7058907.619681338 L -8917075.40958513,7093943.794222456 L -8996547.497473733,7130846.685558353 L -9078487.44824357,7122177.526206334 L -9088347.39458024,7175112.897379043 L -9215870.901226243,7209795.287381241 L -9337771.247111402,7247969.50201959 z" /><path fill-rule="evenodd" fill="#66cc99" stroke="#555555" stroke-width="70812.29902850611" opacity="0.6" d="M -8768707.378113616,8054207.074351378 L -8988931.062847277,8021894.753130221 L -8972360.715459427,8094768.615553154 L -9163329.582751358,8209918.292228232 L -9445471.314389754,8164202.426687099 L -9548359.336679416,8074461.958278688 L -9636057.634172121,8143849.748659603 L -9554123.435996413,8215803.196021937 L -9841560.430530323,8186200.346635418 L -9956034.177395271,8140734.718938886 L -10041592.50987209,8041171.696055643 L -10006303.221189307,7928458.24299409 L -9848181.66637251,7927972.148790211 L -9964588.284864716,7877194.000415783 L -9872003.15865964,7838087.86552858 L -9691475.24971138,7821307.548455031 L -9456001.437942423,7788650.071586148 L -9050883.62531679,7763775.8545734575 L -8849059.61290392,7778094.061359904 L -8789479.995512513,7810941.373835033 L -8701692.53281081,7773049.036308994 L -8603590.668836268,7766709.677579117 L -8485734.396623613,7697494.465022067 L -8557029.17195821,7669326.887870669 L -8331518.853220235,7631466.1896123355 L -8161011.96324425,7577455.083337555 L -8118091.858449687,7539326.889452237 L -8087490.933981831,7490084.683710185 L -8231510.004292011,7381659.789571608 L -8270357.272443423,7326132.874743906 L -8233166.75140109,7286391.078205472 L -8462315.585925497,7272164.912925086 L -8671485.661040774,7270186.0205448 L -8744808.22580575,7188223.059398448 L -8650635.383621138,7149999.9477100065 L -8328757.608038436,7167761.082082504 L -8330529.407030089,7200041.764035956 L -8168435.685967395,7146039.286652368 L -8002343.911985222,7088823.985447875 L -8041205.561621955,7057414.821504929 L -7906292.847817575,7003187.99295032 L -7667393.366244948,6938560.474210939 L -7365517.360447891,6894115.931972263 L -7383632.279359307,6932986.210500189 L -7499558.556241765,7000211.025488696 L -7656909.26344531,7096135.532585509 L -7377704.231109636,7007016.344342999 L -7237303.542506436,6976858.369623057 L -7198965.378935418,7056868.325062699 L -7271407.796798697,7167053.513004671 L -7317261.724598918,7196627.599420545 L -7468385.248658098,7247840.06865169 L -7585453.415475111,7312553.876303001 L -7571396.951721526,7376332.887408391 L -7427372.128817216,7390282.928170597 L -7252337.947261908,7283192.63586989 L -7115368.681056505,7235618.682425177 L -6919973.192582506,7364925.493251093 L -6885331.070739209,7443057.226707698 L -7060431.407126996,7450443.557569005 L -7220439.8128180215,7552753.444148729 L -7397165.257047178,7577201.969195889 L -7659351.239652963,7649897.501200833 L -7454958.693961609,7701760.013568528 L -7560259.929488276,7805939.49324009 L -7657228.532419455,7850809.727444298 L -7925949.461955494,7894779.680667354 L -8041967.780344012,7965680.403304128 L -8248678.62146925,7940512.803990872 L -8263091.746058819,7989081.956219863 L -8416404.132183988,8042129.502978079 L -8663397.513695756,8098450.275795551 L -8768707.378113616,8054207.074351378 z" /><path fill-rule="evenodd" fill="#66cc99" stroke="#555555" stroke-width="70812.29902850611" opacity="0.6" d="M -10520099.04209518,8252660.066604802 L -10630543.096772943,8222326.637763932 L -10688704.699711611,8175017.3036491405 L -10690427.601653174,8119674.471833553 L -10620976.532736842,8021891.876833157 L -10493982.26475068,8017741.380169268 L -10374564.163232075,8100941.149053296 L -10241834.558899553,8122565.15038325 L -10075504.052261038,8221693.85240977 L -10288148.694230074,8248777.0655678995 L -10520099.04209518,8252660.066604802 z" /><path fill-rule="evenodd" fill="#66cc99" stroke="#555555" stroke-width="70812.29902850611" opacity="0.6" d="M -13676147.635245299,8473254.793659763 L -13525317.583370967,8449151.424260328 L -13347130.980233109,8466204.989554988 L -13140198.57434963,8513845.097832184 L -13036185.9199078,8519284.175580913 L -12950443.504418867,8557904.21626424 L -12935167.490709985,8643433.785770413 L -13087847.091480993,8627073.408068264 L -13258589.837816255,8628620.855888896 L -13487195.142079776,8556517.841079215 L -13676147.72512958,8473254.793659763 L -13676147.635245299,8473254.793659763 z" /><path fill-rule="evenodd" fill="#66cc99" stroke="#555555" stroke-width="70812.29902850611" opacity="0.6" d="M -14773210.500866208,6015706.3194567105 L -14825530.233769463,6030174.087935029 L -14832171.603691103,5994674.829566567 L -14811571.56411607,5945737.511313342 L -14755397.662217442,5911066.626499384 L -14714257.985305727,5859825.394297605 L -14647176.985170437,5808914.936258213 L -14602784.216278918,5808699.213978379 L -14699680.9117835,5898221.083809906 L -14666341.75251035,6024611.32941255 L -14773210.500866208,6015706.3194567105 z" /><path fill-rule="evenodd" fill="#66cc99" stroke="#555555" stroke-width="70812.29902850611" opacity="0.6" d="M -11743347.91541378,8827813.056487864 L -11735254.015474636,8785148.942132032 L -11600651.94175321,8758330.348303823 L -11708153.544534123,8725258.684657674 L -11460320.284279553,8721128.322073236 L -11277103.03757611,8685033.670212425 L -11095318.186810719,8672628.200973788 L -11138649.602085488,8719071.76967221 L -11223805.252973292,8772027.274924364 L -11524826.99854223,8812646.342067428 L -11743347.91541378,8827813.056487864 z" /><path fill-rule="evenodd" fill="#66cc99" stroke="#555555" stroke-width="70812.29902850611" opacity="0.6" d="M -13749070.48460261,5400109.710796051 L -13794990.567235311,5461610.694626454 L -13906116.304317333,5507562.4165268745 L -13961134.114564644,5560408.6224905765 L -13998983.307634717,5598815.817191146 L -14103622.994836576,5610602.882560943 L -14171926.421224225,5627486.746328798 L -14288793.247246731,5651762.693552106 L -14298385.69795641,5625991.071855328 L -14255500.108726617,5565413.379382594 L -14140914.186276164,5545379.9703292325 L -14120877.900925748,5513654.413709211 L -14021245.84691296,5474692.093675227 L -13987852.037995594,5435174.64830781 L -13805051.854366485,5384617.974807342 L -13749070.48460261,5400109.710796051 z" /><path fill-rule="evenodd" fill="#66cc99" stroke="#555555" stroke-width="70812.29902850611" opacity="0.6" d="M -13529534.913693987,8287616.9777040705 L -13905780.321041444,8270231.099631989 L -13796937.68891832,8202020.08164841 L -13893483.970088426,8128834.19562126 L -13970596.094555827,8047537.661863547 L -14018346.449587787,8000385.803682842 L -13761315.451864477,7941532.473192147 L -13702559.911428876,7892734.461208002 L -13409545.860957732,7946386.202596319 L -13409545.860957732,7994965.828772913 L -13271509.692374079,8072889.472328197 L -12998547.621779516,8151138.168796606 L -12858604.55031857,8179220.736739026 L -12978118.26882914,8226072.884024107 L -13086233.984677374,8258322.140506903 L -13370559.548892114,8264509.277805202 L -13529534.913693987,8287616.9777040705 z" /><path fill-rule="evenodd" fill="#66cc99" stroke="#555555" stroke-width="70812.29902850611" opacity="0.6" d="M -12002404.045221005,8443084.665351048 L -12046039.059222152,8482732.215191979 L -12083573.765127826,8535791.537283685 L -12198512.252566788,8548687.900292085 L -12300498.717251958,8508128.643821556 L -12141294.03429905,8401639.305733804 L -12335782.543053793,8410097.360644275 L -12533523.807329517,8476015.197117513 L -12846811.363463935,8513588.864844967 L -12951579.702224024,8482437.218541378 L -13103461.78907255,8373697.000349783 L -12947815.990240302,8353796.4149806695 L -12444874.530836292,8367051.226749426 L -12676100.697942633,8317824.634725732 L -12661903.010086859,8281532.254337309 L -12492615.007657895,8284058.093583408 L -12211748.140022112,8332263.885876528 L -11834761.344865967,8349548.463211998 L -11767024.547913168,8402340.618525801 L -11786619.004682599,8456874.923870519 L -11903274.038669595,8461708.416160762 L -12002404.045221005,8443084.665351048 z" /><path fill-rule="evenodd" fill="#66cc99" stroke="#555555" stroke-width="70812.29902850611" opacity="0.6" d="M -11858040.476780647,8134784.222404167 L -11968676.46590046,8152592.001346366 L -12066630.93862909,8136289.2619197015 L -11987549.57236955,8022292.537372852 L -12043472.031764455,7976140.589684858 L -12134552.525936604,8085507.536609618 L -12236277.3898184,8121995.839301845 L -12362072.867194438,8065141.635768995 L -12516877.090676282,8121357.9786196025 L -12764598.579928376,8087669.361120831 L -12709031.229709093,8139842.580065824 L -12822790.843740564,8161342.826517641 L -13120829.856026111,8093588.218446307 L -13198336.051490929,8049273.042356409 L -13291768.726503544,7965865.800684636 L -13097370.38653634,7936545.3600046 L -12925652.279623363,7938101.606485884 L -13183832.235035481,7893576.036558401 L -13125102.298082763,7852539.219472378 L -12967255.712917535,7850300.584512508 L -12729383.772210835,7859156.0500051165 L -12514103.008965723,7833149.590565989 L -12659409.453493088,7813778.885973062 L -12816337.652859276,7818780.470694401 L -12988171.532042673,7799772.667641442 L -13062229.049682723,7787911.575897429 L -12925076.757855957,7699769.916282218 L -12826231.729200985,7712214.322158003 L -12674276.17148852,7681873.0817473885 L -12613967.724156372,7629341.4140420295 L -12415924.65884845,7639863.238449214 L -12133824.496466814,7656554.57676136 L -11924826.605282081,7694316.3744282555 L -11795413.244455272,7701082.37307868 L -11603943.720290838,7671026.11056449 L -11402482.158632804,7653528.913001594 L -11364973.056210011,7694360.902224581 L -11435980.419802308,7737152.114485506 L -11253208.287453556,7746107.767519835 L -11241129.009507576,7795071.645545241 L -11442015.049398217,7847774.745266412 L -11628963.889041523,7902901.270302155 L -11663481.836746715,7981429.378692457 L -11733348.17555838,8089875.713428353 L -11858040.476780647,8134784.222404167 z" /><path fill-rule="evenodd" fill="#66cc99" stroke="#555555" stroke-width="70812.29902850611" opacity="0.6" d="M -11180747.091311496,8093581.539276854 L -11408021.416494679,8107398.514474115 L -11410247.80631054,8071776.277420267 L -11133598.834180914,7985867.686790374 L -11056570.1993316,7943356.999646238 L -10949347.265799519,7934057.369385367 L -10766821.14952542,7977154.710245984 L -10746783.641182631,8077342.25195993 L -10915275.709252423,8125267.519136251 L -10811348.94584273,8178642.988581809 L -10840292.01344898,8210925.6409118585 L -11038871.513490377,8196831.480182523 L -11171625.572235897,8220264.232994506 L -11303381.095149,8166397.844594549 L -11180747.091311496,8093581.539276854 z" /><path fill-rule="evenodd" fill="#66cc99" stroke="#555555" stroke-width="70812.29902850611" opacity="0.6" d="M -11866657.718562962,8193114.522384936 L -11904506.345432676,8177529.793673878 L -11730847.93979517,8099606.150118586 L -11632886.787897088,8173077.014042146 L -11717489.600899976,8197567.302016665 L -11866657.718562962,8193114.522384936 z" /><path fill-rule="evenodd" fill="#66cc99" stroke="#555555" stroke-width="70812.29902850611" opacity="0.6" d="M -10964969.843137449,8540431.333659949 L -10973540.33073362,8525802.839374805 L -11130111.194534361,8532231.539968116 L -11297785.06434682,8494274.933192333 L -11417541.459347317,8497751.440889807 L -11410480.464046298,8411723.738404766 L -11228008.89432269,8420289.773221308 L -11230317.66056174,8355347.09548742 L -11110658.113518236,8337544.88251976 L -10927121.216267735,8348961.809495518 L -10876405.726054681,8431721.17173087 L -10879875.554582706,8488841.428846715 L -10964969.843137449,8540431.333659949 z" /><path fill-rule="evenodd" fill="#66cc99" stroke="#555555" stroke-width="70812.29902850611" opacity="0.6" d="M -10688501.208582904,8972610.3323514 L -10765676.785160065,8923122.13952434 L -10695146.982183263,8872722.240067687 L -10572457.318600366,8835704.05659929 L -10368880.686617257,8836552.311119135 L -10456878.744089339,8806900.138356531 L -10458595.290637374,8766520.10626618 L -10338985.837364726,8721139.602649394 L -10108295.1170091,8706890.707827855 L -9911369.82460089,8714894.57921589 L -9705674.782707985,8798614.628656788 L -9552809.744755756,8831743.309116865 L -9687022.088830667,8867710.636592174 L -9774964.486557353,8941181.500515733 L -9957528.451458324,8962256.732925242 L -10144866.909319412,8986093.349076282 L -10287016.333087882,9045531.277990444 L -10545898.714486904,9039861.776324341 L -10497253.210205153,9014348.462229429 L -10611357.914658075,9006558.324263714 L -10688501.208582904,8972610.3323514 z" /><path fill-rule="evenodd" fill="#66cc99" stroke="#555555" stroke-width="70812.29902850611" opacity="0.6" d="M -10195420.429673364,9116430.661676677 L -10171023.65007111,9078449.564612918 L -10041018.069553277,9045821.82186141 L -9948247.745510887,9000814.238538783 L -9751470.508025432,8963030.17697373 L -9361969.175714307,8970124.568121985 L -9111303.285930738,8957258.261376098 L -9285013.527731128,8916691.212541213 L -9372927.466387998,8928753.792563573 L -9677202.596547792,8933550.549421854 L -9629953.038680587,8876197.63457025 L -9472726.503079074,8832692.864373334 L -9504311.182201851,8793894.682247154 L -9701714.035225565,8767375.03995547 L -9791876.143598666,8724309.981747184 L -9611324.83509124,8702957.790218128 L -9459522.898276085,8631571.940357124 L -9757153.368030429,8679605.434816163 L -9825058.257414326,8671788.332796011 L -9770221.163054653,8591452.39587523 L -9976018.618879085,8566271.927057792 L -9962056.928343792,8512867.514544627 L -9751587.393490765,8507035.486421967 L -9585926.180071846,8493566.94123089 L -9258930.741841147,8510823.688693663 L -8968037.327669611,8480109.52798889 L -8670576.063541273,8546882.854748873 L -8673000.602050751,8574054.829256603 L -8863218.895138666,8569748.434755266 L -8878788.039121011,8594942.261911597 L -8723294.74799115,8628216.770904617 L -8670509.271846797,8671778.31404184 L -8498523.998155912,8703287.295910876 L -8392760.463148132,8741453.183329351 L -8484822.795229077,8796362.63535804 L -8407876.536802951,8816243.183218813 L -8561329.34166657,8830205.986949012 L -8224283.979807053,8842125.210265689 L -8153351.200273577,8864833.027755167 L -7923721.354665214,8883295.365303231 L -7733331.629561477,8974224.4649679 L -7551914.255415679,9005746.805175835 L -7289234.766185699,9073269.868706312 L -7531604.014320446,9072695.460133815 L -7430956.723109525,9097615.441342797 L -7161628.120694463,9120155.41183862 L -6889995.204819979,9168456.938893821 L -6885110.505563971,9198173.676961087 L -7088825.17371566,9228385.78676238 L -7327867.082270596,9242635.794778826 L -7625385.119339241,9251353.392948434 L -7866476.976317134,9258417.643411381 L -8107568.833295029,9265481.89387433 L -8428976.033087907,9246646.63603211 L -8488111.172987109,9258671.236463489 L -8828374.781325461,9254051.608559677 L -9028010.703334486,9241744.125657571 L -9174952.431181608,9223933.007130649 L -9259555.244184496,9163820.482102279 L -9379780.850838685,9194989.9395244 L -9517816.46282489,9200808.994257309 L -9681482.830968793,9159324.28786914 L -9899895.01148992,9141279.398411551 L -10029886.12047395,9137660.401765864 L -10195420.429673364,9116430.661676677 z" /><path fill-rule="evenodd" fill="#66cc99" stroke="#555555" stroke-width="70812.29902850611" opacity="0.6" d="M -8373003.479922141,7507859.566934241 L -8360464.4524791865,7523196.053180831 L -8361707.891191347,7570878.64386722 L -8448616.130848564,7601697.444893339 L -8550634.87818606,7586262.997494852 L -8597916.718705595,7523871.762489947 L -8570139.166167948,7469396.456475349 L -8445351.130183598,7474976.902548816 L -8373003.479922141,7507859.566934241 z" /><path fill-rule="evenodd" fill="#66cc99" stroke="#555555" stroke-width="70812.29902850611" opacity="0.6" d="M -10715324.887090918,7735594.794697503 L -10748720.734328898,7756745.497948223 L -10815512.428804861,7776783.006291012 L -10933606.823807815,7808343.1951258145 L -11011434.732601022,7760085.082672022 L -11109395.884499103,7725576.040526107 L -10957377.987871809,7675556.853727965 L -10866719.394569768,7687727.413656393 L -10716674.07931933,7653998.72114094 L -10647451.167164441,7693032.900587602 L -10715324.887090918,7735594.794697503 z" /><path fill-rule="evenodd" fill="#66cc99" stroke="#555555" stroke-width="70812.29902850611" opacity="0.6" d="M -7182235.584830113,5551841.417112565 L -7078724.043121079,5499259.655636362 L -6934445.077493733,5464358.768882855 L -6880246.400413757,5466350.274573147 L -6883505.835104184,5486776.287938804 L -6997352.83493592,5533292.250361681 L -7143730.172964719,5561207.839067911 L -7182235.584830113,5551841.417112565 z" /><path fill-rule="evenodd" fill="#66cc99" stroke="#555555" stroke-width="70812.29902850611" opacity="0.6" d="M -7126101.618402695,5236024.682147323 L -7168152.556049856,5201678.166457967 L -7140343.834054789,5164406.174550563 L -6999138.399568245,5117154.390293543 L -6957903.4337886,5124413.534288173 L -6903153.168631745,5170026.695640715 L -7006370.826885084,5166991.013126783 L -7087099.721608366,5181923.409621793 L -7126101.618402695,5236024.682147323 z" /></g></g></svg>